<mxfile host="65bd71144e">
    <diagram id="xdf9dVBnHZqdY9chxz0v" name="Page-1">
        <mxGraphModel dx="6315" dy="1854" grid="1" gridSize="10" guides="1" tooltips="1" connect="1" arrows="1" fold="1" page="1" pageScale="1" pageWidth="827" pageHeight="1169" math="0" shadow="0">
            <root>
                <mxCell id="0"/>
                <mxCell id="1" parent="0"/>
                <mxCell id="4" value="" style="whiteSpace=wrap;html=1;aspect=fixed;" vertex="1" parent="1">
                    <mxGeometry x="-3510" y="-610" width="1250" height="1250" as="geometry"/>
                </mxCell>
                <mxCell id="6" value="" style="rounded=0;whiteSpace=wrap;html=1;fillColor=#5F47FF;" vertex="1" parent="1">
                    <mxGeometry x="-3510" y="-602.5" width="1245" height="60" as="geometry"/>
                </mxCell>
                <mxCell id="8" value="" style="ellipse;whiteSpace=wrap;html=1;aspect=fixed;" vertex="1" parent="1">
                    <mxGeometry x="-2340" y="-600" width="60" height="60" as="geometry"/>
                </mxCell>
                <mxCell id="9" value="" style="image;html=1;image=img/lib/clip_art/people/Farmer_Man_Black_128x128.png" vertex="1" parent="1">
                    <mxGeometry x="-2350" y="-600" width="70" height="60" as="geometry"/>
                </mxCell>
                <mxCell id="12" value="&lt;b&gt;&lt;font color=&quot;#ffffff&quot; style=&quot;font-size: 24px;&quot;&gt;Home&lt;/font&gt;&lt;/b&gt;" style="text;html=1;align=center;verticalAlign=middle;whiteSpace=wrap;rounded=0;" vertex="1" parent="1">
                    <mxGeometry x="-2880" y="-585" width="60" height="30" as="geometry"/>
                </mxCell>
                <mxCell id="14" value="&lt;b&gt;&lt;font color=&quot;#ffffff&quot; style=&quot;font-size: 24px;&quot;&gt;About&lt;/font&gt;&lt;/b&gt;" style="text;html=1;align=center;verticalAlign=middle;whiteSpace=wrap;rounded=0;" vertex="1" parent="1">
                    <mxGeometry x="-2770" y="-584" width="60" height="30" as="geometry"/>
                </mxCell>
                <mxCell id="15" value="&lt;b&gt;&lt;font color=&quot;#ffffff&quot; style=&quot;font-size: 24px;&quot;&gt;Contact&lt;/font&gt;&lt;/b&gt;" style="text;html=1;align=center;verticalAlign=middle;whiteSpace=wrap;rounded=0;" vertex="1" parent="1">
                    <mxGeometry x="-2650" y="-584" width="70" height="30" as="geometry"/>
                </mxCell>
                <mxCell id="17" value="&lt;b&gt;&lt;font color=&quot;#ffffff&quot; style=&quot;font-size: 24px;&quot;&gt;Logo&lt;/font&gt;&lt;/b&gt;" style="text;html=1;align=center;verticalAlign=middle;whiteSpace=wrap;rounded=0;" vertex="1" parent="1">
                    <mxGeometry x="-3470" y="-585" width="60" height="30" as="geometry"/>
                </mxCell>
                <mxCell id="19" value="" style="rounded=0;whiteSpace=wrap;html=1;" vertex="1" parent="1">
                    <mxGeometry x="-3510" y="-540" width="1250" height="580" as="geometry"/>
                </mxCell>
                <mxCell id="20" value="&lt;h1 style=&quot;margin-top: 0px;&quot;&gt;&amp;nbsp; &amp;nbsp; &amp;nbsp; &amp;nbsp; &amp;nbsp; &amp;nbsp; &amp;nbsp; &amp;nbsp; &amp;nbsp; &amp;nbsp; &amp;nbsp; &amp;nbsp; &amp;nbsp;Heading&lt;/h1&gt;&lt;p&gt;&lt;font style=&quot;font-size: 18px;&quot;&gt;Lorem ipsum dolor sit amet, consectetur adipisicing elit, sed do eiusmod tempor incididunt ut labore et dolore magna aliqua.&lt;/font&gt;&lt;/p&gt;&lt;p&gt;&lt;font size=&quot;3&quot;&gt;&lt;span style=&quot;color: rgb(63, 63, 63);&quot;&gt;Lorem ipsum dolor sit amet, consectetur adipisicing elit, sed do eiusmod tempor incididunt ut labore et dolore magna aliqua.&lt;/span&gt;&lt;br&gt;&lt;/font&gt;&lt;/p&gt;&lt;p&gt;&lt;font size=&quot;3&quot;&gt;&lt;span style=&quot;color: rgb(63, 63, 63);&quot;&gt;Lorem ipsum dolor sit amet, consectetur adipisicing elit, sed do eiusmod tempor incididunt ut labore et dolore magna aliqua.&lt;/span&gt;&lt;span style=&quot;color: rgb(63, 63, 63);&quot;&gt;&lt;br&gt;&lt;/span&gt;&lt;/font&gt;&lt;/p&gt;&lt;p&gt;&lt;font size=&quot;3&quot;&gt;&lt;span style=&quot;color: rgb(63, 63, 63);&quot;&gt;Lorem ipsum dolor sit amet, consectetur adipisicing elit, sed do eiusmod tempor incididunt ut labore et dolore magna aliqua.&lt;/span&gt;&lt;span style=&quot;color: rgb(63, 63, 63);&quot;&gt;&lt;br&gt;&lt;/span&gt;&lt;/font&gt;&lt;/p&gt;&lt;p&gt;&lt;font size=&quot;3&quot;&gt;&lt;span style=&quot;color: rgb(63, 63, 63);&quot;&gt;Lorem ipsum dolor sit amet, consectetur adipisicing elit, sed do eiusmod tempor incididunt ut labore et dolore magna aliqua.&lt;/span&gt;&lt;span style=&quot;color: rgb(63, 63, 63);&quot;&gt;&lt;br&gt;&lt;/span&gt;&lt;/font&gt;&lt;/p&gt;&lt;p&gt;&lt;span style=&quot;color: rgb(63, 63, 63);&quot;&gt;&lt;font size=&quot;3&quot;&gt;Lorem ipsum dolor sit amet, consectetur adipisicing elit, sed do eiusmod tempor incididunt ut labore et dolore magna aliqua.&lt;/font&gt;&lt;/span&gt;&lt;span style=&quot;color: rgb(63, 63, 63);&quot;&gt;&lt;br&gt;&lt;/span&gt;&lt;/p&gt;" style="text;html=1;whiteSpace=wrap;overflow=hidden;rounded=0;" vertex="1" parent="1">
                    <mxGeometry x="-3490" y="-490" width="520" height="460" as="geometry"/>
                </mxCell>
                <mxCell id="21" value="" style="shape=image;verticalLabelPosition=bottom;labelBackgroundColor=default;verticalAlign=top;aspect=fixed;imageAspect=0;image=data:image/webp,UklGRqpwAABXRUJQVlA4IJ5wAABwTgGdASrJARgBPjEWiUMiISETmUbkIAMEptguPOApn2ZuqtkX1N+5/vvo+ch9qXvf7r/i/eL/l9i/xP+58uroz/0f5v8zPmf/uv/T/pPdn/U/8r/8PcP/rf9z8+L1nf3z/ueo3+uf7D9y/eC/5n7me73/GeoV/Z/+T///bA/+Hsx/4H/wf//3Mf2+///tK/+v95/h9/t3/Z/eX2uP//7AH//9tLURfNP4r/R/lJ5w/k/0r+U/vn7b/4H5lP2DKP2eajvzH8P/pP8T+5H+P/eP7rf1v+//0fkv8sv8b/LfvF/i/kR/K/6B/j/77+5P98/dz7M/yf2l8Rfg/+J/6v9J7Cntb9d/1X+E/z//S/v37t/Rf9r/x/9L62/ZL/e/bv9gf6uf6v82f8J///s3/vf87zL/uP/L/7P+9/bv/R/Yd/Nv7J/x/75/lP+l/lf//9wn+N/5/9h/uf3K+AP1F/3f9D/sP/j/r/sS/mH9h/2n+F/0X/c/xX///8v32ezr9zv/t7sP7Enm//hPvGf81DHksCc6NAZCvNX0/FROPMxJfXZz1Lx4a1msh7A6v8KpZGLzu1LbOT+G7bFm9pENnHL1d1jaGvvoUXJ+n3eTLJFeiagGphIegJUFUVIBGBxylWGvfEukAZ5AZLCPVT4Y4BpvcVslQh7ew/Gj1IHbqtkRtBnoD6surdQrRmcgxFlgJ+SGlrdScE7X1xUN8k20XwlnPkSse5hKX3wVgmDvS/z2xBVUn7ChMzc9j5niW71cVoZqZMwTT6IaZKNGdJEa8/j1sEQkSYb9XSLzF5RhZSb+Ad/TMK+WNFsGHRf0JV4XAqL9qbNinYue2xoU2Z2wd/2J+gAsXb+JdmYAt1eI9L2fq+o3jxPQKlX2JSC3UvTH8R60dVa8e7Gfz2y/vabxMLaazqW8DEEXmw3BKZM1W+z8Nd+Hj6pdusStk5c4/QVcVHxpHtiVHKGmaoY0lMIfA/DpvZrAq4uCNZktwQ54hDIfPEZj6W7DYwn8YTagJzhSN70lHjaPWgVELgpgfF3Cy9O7gqd7IHOsl4IchmrPL5Ja2f+QxKgMF3KBkbKo9SbUlEYFSHjQbXqekYguKIIBj+3QHQ8+8WFVPimC1U9NxOXYRYyPzKTWGN7RwHJBdGB3RmF1RCofSI9DstfuuCkpMXCTlUzs39tnZLoP2ep4eYYQpiI58src5G3HXUr3ek2AWg/vwx3BFXRGI9AMAkHbN4DAogSZiOEpAqcCgXOfvYpYAjNbh/M+6jEj6Y4xQM1eWq1fX5DNmeUk1p0OHEyt6cfyFO+8VI04fzszPXOFEOWEHkMs8LyV/l56X2mQUqELM/2SwBl8NVjY6HwF0gP0QsD7ibj3ju+8NSOKXy0+UqWcjT5jkS3llzyxxBfqVvthP538h0UbzE+UR0ivLGb8o57h3zKs16ZU75D7HTgTLiD3SkuFu9agNOCuyxplZD27tU1cOHDcLjlbWcFTiQM+W28ereCaW95aGg/DDZk6fC3FiFGP+qtpL0BSOyo6u368lVLsy1rzRqLaKxC5LwXymYJwi8ZNg0HxQbGImBidvxcm6kQhCbjWluu9vTM61gQwY7DPxM8JxKYAHfZ5tZ1u4WBGqGZopY3Fu6ycBJ7IhxRc3aYbu7dJoccPfZX160FdZY6jNemJKCkV877wzvwYdikb8rn5a6TlQQ1U94TXzftyu9QvIUlXdkrS8UCrPkKIH9CgnJkcUPZYDN9mCBxmOPrjhBcpIgLkqtuM1NjMSDE1MQ+W1cwplzysaUCwZfdNv8H/aNdUKZbHyHxMM64NQSGkf/nuJ7IsAG8KHSWfLJhkb26U4Zlt3a19eU925lfCLRymn5z0j3/1Jbqi4jW17cJruAIp7iNJb7h5VbmpMymssOzDhUbuoPXRFUCKv2ES29GUBXFio+JzBiyqTrnEXBeZfrWhvJRbb1LtJ7knou4xpgYlqKaPamGdEZz3zew+kr7kE5xHm/ieku159yxSgFxqKH5kj+eT1k7ugqCSlEv1Ou0xW8BDTyTmth3ULpzcUg8td5PttvIyyQBSrtMVP6myjlisJQb8J+8JqBeF4LEmnSqL4kzlPWKTXtDyS9sR83QciwfXuT18sgFj7BoumTN0KM/rYOntxODZzsupD67zT4R2PM8YnSMchIOKxtdlcYCN4vwTC88HST3eoZeCsv5j4pUQP1/quT6eTkFTVMHuaJiiLGf4amFZKKc1WqSz7/v6zaigqnS1ILhOBQTY2y2ED0ofzF6hDdxIOhGz/DwwATq1gQggtD3y0PXSNOVTH3Tke1cQkoeM4atO3MN5hYeM5owTG07Qp2OIrVrIc2g8ARSlrPJkrHFAaXu606oihUdOUL6+rCX2iOR1Tjxp6S5Rtp7u1EyOJV6LRgnSEQvGENW9JfEAuVFjYw+Lo4ujP4jg5lGDNjr2EMS2JEzxvGJOHn9Oe1vkgr/T+v5wulFJaiQhJxWaaW22Rx22tA/rrnNJlnsXWlngKr+U9mpMhD6LUCh7kDmNes3Kz9+77aGR1Gw81MI6r0jxalVmZxCjsloWnYl7D54oFZr+23beTg7nKGaTruB9nqh/q44TrKopjvkunl3UjBnsJfV5qt/EooVrNfADXdoaDkFkKyzpcC6JXq2jsAp1srVk9/lihQ/Q82URrRM5TlskCQR4Wp2kTu+gySXhj3tQZ5KYRfvqb7p9Zpw6EStxcAFGzUVQWbvAsPC5VTwS056OYVPzHurf/NR+F3r9JTl7qKI+cfGBIvHyBcZSnSQan8BcHEBHRSQFRYDogu5iCQxxQPErfEM1nn/mrL4kTqFayxpOIqzTiUJukXLU3/L/axNQqc212Pc02xZD3zgqUIFccyqfMFGTZSZgErWg0yVxtwm59WopoB5ohQuOtHV4oe6WEwzzRYDPNgDqZd4nDA1+TZ5Cw6B6YnLzYzTsFPU9UIHGSrvu2AwJUHnEN+sRm9xz6EdQs12mg/6niPhfkHgdUOCmcB24KuNR3WmOZahiwBLc75nJqkjazDQ2B22/itkKRaoIcGtBLJ5XS7i33XHqTGgPTxupX893uUm6XBUI6b5HnAYlq991K/3Hu9VBR8yTb96mP8NhnY+CxgoWy19vKU4Dj08YRAK1m2OJDgKrZoj75UlQcyYSXv9arlwObneG2zbffS4GLm3bRUZH+8oPwFefHvYe06zfGAZzlCDwYMG+WnEZUbzozakLIkWvWsfHUcunv8fLT+/SpLTaRRJk0XFNCH90gJUe3+b0pEz8TMo86ySR4Zp6MuuGsXjmlogQglekLwD9ZuDH5i7E9W6LhXHTabgZ/oga4LMQxGsa4ywBtnZtS5iN2XEz8eJnIsk5z9a6RG/aMv778V+UuN5fdDVGZUzIr+qF725dPzoSz2XyMPxWh1SnDe8JEzBPufDcm8Yk8ILiX6y1vOmOV4tK3PgMPgwaZrS7OOfmt50gE+OSND1epgcvqReM1yfjknq6ZM15YnsMwBbnb/TK74AZ/HkLewPGF4PYCHUvoI9EuLqCkGydbnCd4U+rDC/UpufE//vDJLjGAgTCMtXjXTmVvqHGAAD+6lvijrhsQhvLq0D5WhZEBPtgPHd9I9AGW5DVCY5bQj4kdwUScNx/0qhb7e+gg3kdYzhr6MK1U2inwUZ2EbgcBcTQqPZlpdtk/2D+WjlfSh3p/+7YCmZUTJmMrZbOajVj5eotIOTAutNpN8k0g5z6RIuduLiEyNI1lClvu+oJEgNzR6Glg0NY4MwVlWxqyAAWORF1riQrrU7BVnf+AKFm+tEC+LWZOEDVNw3D3zqQDGQ2k7QeBtjb7ymz98giiKEgjfdL9X1yp+Ex4qe1bR4DckX5MxqkYvkVvt+n4RkhGOn5v33zPdMbkNifsOk9m5VgiYpNTT1QRHgeV/HC6vKcu9I8Q2ppvxIx+FvLwXWVO4BcP65og+ePlTA/z7FLHlCihX8o8gCdEJflcsaqzpBXKWPH3DhS86kXECyGh2EVV7G+Xj6l0U9OJmGcywK3NLq55n6Edxp6bkU33vZRbkY2dIZy6onrJmhaiESXPzKZ0HfCj0K9vc0RC9M3NtJOt3gtqDhddehWvcwf7QQb+EGcBdU/aMyQLHPQIgEMqvv8AIXoZ+8wXNsynQRDhaMu99HXbZ1G0X6aCKa4e1dMOQzbkWt4lW2y5Th7OFcPBALtRrTUZ9OxwefO0jU4Nf6Io8+SFMcEK45oBe1QAMUVfxpwoIXe73G6S1OieIndeJ/9wqErzoUuy7uSCgUeD7yWnNi41Bg0dCVAgd8tgBciPxT8xBjOZJ3W+nnVYmhmg4S6fPMwxeQfpZI6PFuAdeGrUc5xN0FjozpMvZ0Cr0r7EgI7GmZPLz47fTyI7M/MV9HSZOhmjoqbLgrFRLI4gO0/eIoopZJ7JhTkV9Xp6m1jgmEZhxM3YSarG3ufXCXQ6lDQCrMXXres/qycBDAsPvrhF5b6/2NBqtklPXPylRz91fwdef/3h71W/Zerv1udxC8eOD+PAiQQnA4iCyEehrjLYnyyt8zq8fG6OepW2R46XrRxoUXaHRUUBbxVLmLu4cngggUOK8eX97D69k01hyR6bydnV0YLNMACqiAeYNBMJHL/KrQL096AF6SXBDlS4NafSi+kbx1fngzXhgdl7eIV4BPvanuhH2seWE+SI8uNPjDfR/8PkC4OiVcLoN1+nrWVrLBcoJ5yvMOLd4ABhdRPyn6Eu9YrUGMyjSuawt+cML/0WFsUJhE5k6sGdXh8V2SETeSjetPNxfM3Lmtf9VW8+S5kIVCkLBzdgt8NFFU5mt5gQqXy2lfow7mUiAp+LOCJQ3ky5TdvGX+l9hzwkSOb5FVoVByHMSxCSt/aHPp9cdSKY2bDP3Z/z9qWbLB5XgQKUZcB+3avmZB2t4SAY7oseZZo5yEuEw7GDSECmVxCzMaekHynkuXYGvd4G9GlZ5OEsNr6NYsJV1Gm6iK0a3wRofXLWVrDDxHpUBAwHr40D+7+MePh0nbDwMBUKKZQAOahtcqP5Yh2a9ssIM4eXLdEacGSJPFgLYdXMFYeVbnUb0xQSgYVJo2WNewgPZXvBy+Wm64fRoXzlj6NZiERfZwvMIVBggy0GyojQy2qaEyCgouDyorHiPH1A7fv+ZNOEV0xl8Fag2wnlUHrbAW2nd4qInvnOXEGkQl4RCEyg1M+RBq5CMN3NkQLU1prVtEEbwk5ac7vmjVAGRfPpsWrkvei9RC4TRQUTCV13OUPoj0AZg4R4AuZwp5w1yUI56+Ep+fYUgbU14T+NH30ktwyA4w9/8lpD14Jkr66lw4DRtAf+r6WmLK9Y3QCQafuU4kWDseUSfV98hdTKcnl10ToTAHFLEzTVPz8QSQ/yg+UkYMd1PecfAI+wauwNwux747r+Z/9na5T4BVjHpQDV9sBR3/NI/QVyerOLyvMxJMP7vYjIZCP+02Pra8kTpWdfzuSAqaNqklq7c1yrFcioBb3PyAF4jDD6AdxscX6knenBJ4Rq5NuV6zC0ngeYAdUNmS1Amsl9U8qkxJNWHB06mwXory4sACsMjdQn6RtHY9WqRUQSK9mhNctz3YF9/kGbn3+xOeKSM7X4f14NPNU8mpLihWvIwu1rc6KniVEHyPVxaMpHBKueDf1mq/0aktaybALXGe9A6zcwaa3j+5MNd2M6mp7UN5BH8ydDqwDafdp0AVQJb+jVahB2DdRv3pUZ6rAt9tbdV8+FzIMn4MwmAkqI/OSFuQJdchK05lC3YltVLbVf3hkU7Fz+xee+MiHn9/DVFRgXBZN7HSFJQBQ8biBdfjmyRl+Rt+uAtgXQRHoqn3I7En+dhWsEYVg+PB8qIZfxU0LYpoulC8KtNPgvEMuuAnIbkSAYNS4uMOZ1lqiJmKrmKCmjCkllbYoYXv8p/Zl8dpJzNWi3/o+KZ69XpyYU5rV8DyhVczMHuKJQjTCQrS1Kom7roNFMnFZQ/hJwlZESv9d7wO3sgvuEr5xhEpn01QewZslRLfY7qzSaq43s/KAn9ciAuDLQFe1kKdR+UqMKAa51OGERPTOMBEiZ12g6bkttxLMXHGYcr4f28rL28qvfkoLQjEVkgKKi5iYSTtWBINhpQrcEL4c2Mo0ritQZKodcvbVvoWsH2kk3HFwg6D/UeIs0fRon1dP0J6NEkzLkUtz9FoxYZbC1dZTWvBoH1Ewn6NYRmCShBasZqnjW/JVSZYrFPvT6ty6VJdInNrqfCuT6vAn0JgSsB9S6saMIlLZXs2FkMqvf1XZVFD9iq6qgmF1q4/jNn7ezmnuk40VXfnK/hTEOixEKRjZw1Q7ZBnYWkMtlN6af+MWV0/9K4J0cKwr+hGGe7lBr+X6J5TIyUwQggKNV3t1dmo99sG2oVy/DzrfnYMocSj+rdMu2zm//7E+ZLpI6S8t03NpaocQsofDuqOY0nfIp1FfWwi4RvPY+vX9/mHyMSN9d/HaAwzc2PW8uBRNwohFzvgpoPxEbFmgQuMx9vx2BdiDkLEApiQq2MNo9gH/r3f+GRqAqR4t0Gh1GVegb+d1n63+ty/SUH61j9bkmunjiioveITQ+4KcDu6iaUOi5rU4C7fAUiWO5P4mbeIIwb+5C905SkH/8Nr5qFUtwufoqyUrGgFLaRP/2sgSamZDcHpFmML/H61nHCGFhc6KrrF+N99iQ7Itu5DYWVjrzVFttaGAJMKbH1kTwBKSvvcxjqrcDOV0/87soal8KSuGHog3j5f+gqYE376CmgbQxN+2/Ualw+astAEnSuGLispk0otCtgsMkOU1Lgshs+8naxkME7Vv4pqQv6rJpsRS0XVTRVDxlBcn6TklmRbqqOTquU+RxcBdJpqfpHSVPEcYHbjr3Epwse5pNdZCMvI61IKZRIfifSN+wx4ewKkUIEiQT30ExrqWPGay3GOLYoVbiCtqAgiV2hsGxE5oS8fLVfdawQuqzc70Ztx89kMMYwYoeONhJfNsIKeVGCcbNKpMu2V/AdPE/fafHp3lb/KhIJphQnG8uPfdpd3NJLJweaC4x1FYctgo64A4FTIS9j55uzgnLQXMYIljkF/9wbeaNpcwFtIt5pqvB5rcfFjpggFJ5Ci1hKMoyVDrzUrmjpzSrEvQqnOGcQpCSQ+KdyYdMUqU6hao6+y7JP9SK+nesv/JHZuCuekBduk/UxKN3sPLY5iQBDXSZQo8lQbHoMNF7E6lwjYTdmSTzs0W8Ysz61++3DDPiT7NOvGAVSw0FTsKZoKuddEgmxenL21uIoBcrtJicjwT0LXQF6SRtfhZbsCv/j83siW+QtPP6ySuHe9MceB39dZds6Jv2a/J3A45d6qngU2INMakqs8UZuYxyNxXM1pL2AXgq+jYMkJadNt6B/9bD2BN7YFXJbq/3NWhvNm4xp8Fb0pcIWfaTPOdWQhRG9WTiyejHhJAxkD/SoYcgNmy9zSBysVB666GcczKs2xgJdnzDO9EfwZgZLp2vfmc2LntmFBAZJxJNFltXyZJ0woAJhbLt5VEQ+0TYMu3MbDouN/U6e1oqR/8o1Vb255zd+MBxtvkVHQIa6UdFrbDXfLLfIaxiI95KSAFw4farcWxtHvgt1TZVXtvgUzrmVgYNC8P7TzDZ0jAAzLKi/cytSUCPXFEIQy6yY7hpKGtv6ikwcD8FjYChFUmqXXslpBJ8CknM44EBRIPVb5lJ8QU4YHcQR3m7Pd6dsS/mdknfVifnpQDd/uTMqs2Q4QPOrzMXcRpNS6y5j8sOIHHkhil4XR5nl+Ba++GRYj8mwSxorSOO6bXcqICKJv4y9zSdFIPixzksXXnIrnSL4piAM9nvBqpYlsWGnvn0jLe7L2JV2XA6+fH4I1drb/zZogF+wrBu74fD6YhN0bHCVfU09v7VCszv3fJ1gCjQ4VacJGMVWcOqSapNIGqoXzX1NGYhQp1UHE9U6EAiOto7UBoUc4ceWU4EYSJBIJ459bt2L1YqdYOctkS4BVKzMj92BJn7gLKEh+iTrYM+FicTdg9IT4gklJBAis/F+Cal9UmzGajK6LPT9PlJQwDDypVRAS44aMGdWUmrZmVhjoTK95smEnGqIX6C2cWe2cmyntqx+kLU+6FTdEjy55xyP3S7UdxeLSJli6PWXw8dQyAI75bKOCcSwvK9rrVJ+U+FE4uzitKW4lrhkT+ZrG9IH3NcgJTAfL+7rvKpN/T18dokPXsrGa1Xt89U8d657sOtdKgpVyqf8fmLw+lTrX+rYmiQ2xa2kJatfaob2Q3dUGKjpsi1SliIr0NduDk5cmane74fC66E/Fk4HvRi6//oZavxJ+VlPUrsxrYwUDxeeFz7/P6GnLVgcWLvEXsmxRn+ytXSMoaJHXnj4kifZYhL+yCqVd5a0cIIeOkBBxeirNa1rxhnEr3CZ16yWw2Rde/8lK+lVUkFQpxw+EDWawBkmkjlsP2NXzZNmSb8Mo4eq/vJyNIzdsD8hi9kc65WWo7gpaFSN7MwvZAIPzsp1M4MRXBjl8Smh+0D7m90nzoU9lpbIXv1ak0HLg8bs7M0/PPdTsSfzRStkzJ3WQ3xOenuRXocjvjSdwCFAvMjC7PxZeJjJaevuMYfzZG6SF1YMvOSvyenPn1BOjXb4aZtjPe1P+kgnpdnPd7dwiXSjEwlZoSqRyhQa1i0g5v69y75SIvc0X0+HENcDnFONTNLA0lvhIEZ1uCSNUsOSDsS8xWvv6h2+dV9QUNMFruhvnFYGZSUEuhYRDYQrx3IEcmMdfMnRV4qIoqs4XJzeAxxYfVg607AZmUHkJQNdg8orGjL0Z4NgYD5xVwj2F8wpq8Mqd1Z9iz6TpToxP+43rTBNr5eMf26KUpy3uPwYNOko8pzKhogwCIpLxY835/4VFKkPKqXUK5hgxyo5wkgFwZl/z6DFodUhCTRk/b5DBs7mTkhItMR0zgxGIQ36TYOkyVYQesdoQXktSH/JZ51wzI7u9tDkN/Chn1TC/xbPg9Y/co+TM1NBDVn3ewlsdqwU3/x89n+WmG1y6cQ/vcpjldT6Qn093Ai/q3Yp//4GG99BgGBflyERmIaYdU5pnXH7FwucxsdcO6efBn4ath3lUKQ1Rrr0nWWhFr4Zb/lqleqd2PyZtbOYJYBb2SoLyAcZCenFm9dlxaOonpbxQdKglVeKe/KtzuhIra1Ht+7WvmvCxiDiX3iBpC0UQxixuv5mq0TPCXTSYevM28o28NiQDCp9ybnTYdy3tVXSU0tY02E6VX4kDGkZ6echIrR60l3wZEFNYYtf2Mp8kncXleVMHoy6zfOunMUyXXZQNIclt1A0+c7RyCBDpKpghuqh7eRfFbqMMO2M918K9jtC2gvnLjm8xqyPS8liaRWzffHuPf8AbMCUbJH2baT6Dge5tliAGRZ3V+zrjYeUxjREHyA1tO5QGVYAR7IYqCWfnH6BvVnNEmHPbSYDq7QYTyFpmRVUskCDBYzibHLLC/XyOu0/ki8ZSDCbpcuZXGj5+hRVBeQFWY6IU1fl2zbUeTWrv6iTyX5tskLlwFWGrraJ8xiB19x53glIhio/vJqJw90h2cOmMYw5mp4tlxxWDe/xD9AOiJB0JHN36x49OG2C3BYbrgNgKnTY3ywcez9nLNX/PfjZreE/FKlY/wgdWp+J1Wiq5cikc7hDvG3ToixEhfGYDjoijVF9kZp6l5yIg+5geL8IYuItFkBu+x1/gjHHx8QO6ubdeAoefKjmO7NBcdJK1IqrBM9PhFYoOCq4VHuBrmJ7auVJdT6Eppuj/Np6xLhba7Nn4m/t6DLh8Bv6XW6S/yPi9A8wCjxMLx6OPZH30GbsOaVyi97Vi+MWexDWxmIdIgKTZZwLaL50EBeWrPEtPt58R+EEBD8wRjgNuBZxuDzpXxhfkVa+mHEGvM2dvia9tczSfuxouyKw5F1SZ95C3W10Ed/RChClrovO+S2ac8uLndg1sbyRHDCcb6+ffiZzUhg+BhURDwdWskpH9Fnug/ne2aAqpcNNn45kV1Qwi9OyR+CUSvl74HIYdWEMJ1Sr6/MHU9lpIGEyLuEYyGOQE2HGX1WKiNVMQAfmJh6+EpkI3bGc5pj9gVTchihK8Rdb61thv0qs47LDpB3x0cmosmHtvDavVqmg8eh+ex60mT7uSLB0+FUyjoAE4FYDWO5lz3MDDbA5tpYngsQ6nBi8tddf1Y5f+msSLIkslXzZX+0KDCSrBLha1n4vxGMaqcxPRlRMupM1yIZsvsEfHLDbaQsBemDV4RKYvAUtGhGly4phS4yhOgyikJ94SHene6dD2gsO41t15Vr7mktDhWu3UCGHvAbP3BZ6hW1XHACOWC2B7P8gXFCiyNcXcyth1wmI5WNKu6cxT5RueUpW2UAqjVWEWbUssobyKCei0UMS7OmNsBl9dj8Ezh1m8XBsT4BB6h6eOdAz0/45Lfmvb5Owl/SwXqAWi69JtROD/eKAADN0FRXbSnR2uYcNQhAVD/M8f8YqWQET+MdfAJXdyaBo/5wp7bbeBAJoe2zWopx21+/K3OriES5wVgIPOGw1vUJAtA4mG7s+lBwCHfSLCC9V2k1cFa6uSAzBXPnZxYxwUD8ZXaXAIO/b0rI4IuSh2eMo7yBd6Glb4hh3q6UgC6NW1lMictP1TgKOwJusVihYTzV2dHBxQofwpq9Qo0COrkTbfCzY1Q35U1e+HEwgG0K23eqNdvSfnMUkLT3A4h5pa4tiTyoV1df7XeV+R9S8b5C3Vmodqg52jBl/m9Lb73yRqBsYPTAYaUwMNx8fc0IhwgIawUfIpYL13+Kv6ZZJ/igKjJNb1iLcJTJaeVVtOyNwlrHFFqNHiGbcBLUUo5iE4iw0stu9kOx7gZY/wTAfU/NhLKLi6kClTPm1y4wiJFJiQnaHmMlR2TuMoy+Hs8ybPYQYNtR6P3//J5AJW0jn7VBNvyOcrp4gffRgYhlB2ijJU1vpUn+8v0D/Gp4Ml+VvO0QWfDyn8kVTbZf405jRJJq4m3RGspFk+OhlW85uZo5f+rRZAZ3VDo0n0M73kTncZKHuuprbqa/MzwQpph3Kie2LmgdmzpPCbBz0kc3/9FwhXMkCP9NQhIpoYqWgmSf8yixiCXsmX+rzMdB5VFPSpOILqlY8tFx630Xt1XU9l9a8buCEtzYzaAdD4KUuUExcjpUI8AWLOGhZnswGly444FgddmCeEyRiYVrdS0zpf/mTO5ltADAzLMRaX7lJ8dbA2h4l2Q61PngeNzZfZS4hoCvNrnchxClkgT2KiWocf8NeikQlttl9fjYOzhbsZxKfBx1mPEEpM1AHuxhrc1aQZKbWlGL/nQCH2UkudUcDEV/UAgjS0OZDZssF75Wzg47bDLCzjm8ai3Zah3SWnp2hsnTVTx4d7r0gO3q/xp07yj8B+c/Z3u4w5bMr6nQsHz/tIyTcbcRleL3qzxLoQInivZY7VCxeFBlicSsv9s8uB+mr8okQxOSQzBBds4AkQz5rj7M76WqRJib7LzhLxWfXACW6kS2w9LP/BV64U2io8NL5hzWPHG8fJKZXrjh4NWA6y+X7WYuTx6YEC5D5WUQu8tM1FKdqeE3CyWCzjQgCjEmUXI41wus4CayvMvmh9MpJwkwLPq89yctb01GV3NcwyvwSll9X+fMUqCH5hhKc9LieFz0sOnsz2wjk3K6dvIPymyTilmvG5A2f4WSrmD9Fafrtcun0lL5nT7dihv2UtE9sZWusivpTcpID0vsi0ss9aksQtGXI3LAEU9Q8Bfus7xB8WV6VVOJQzvSInzhHvAvGEdensEX6rHaeWUeqb8bDFP9icuaSz1c+/hIEzRFz2t6L/7C6bINvzmcB8QWAnRZ44wPGhyWqv9QABXHnPflzp3Rw455Uq8JsBm1g++ldEe/IdHFG01PvivxDIa3Ava89mLuIzv5VDwsrFKCej7mLG4dnx2jcdk8WFG70hZ6jGXhICdXf2Tqx44+YxZNzZikIBpkplO8alQrWqKYyfXgjnolfbm65X8pv/zML2oD0FD0UUXatyrZHtThbe6ssJvESeiM+yB3+65rltOnGDu5SXIvxsR5bqDvpcIRNzfCzr730B4zOvqGTwBvhgoBWmtJAsxEISjoF5YVSGmumaqwFResQ+TWUB9aBU3m1MQkUme+FYiOhhXjwExctORZzYyjToCTgB7J6acgOjRjU36CQuSCmj/JZX0uHQ4cwme7GYBghaK//z1qQPCqb3fZVDAuuyiivZKVqQrA+ClVzpr6MZ5Px91loa7P+v6ABOOW3UCgMYEQwhSxSPXjipPIZQsI+mInjyFzHm2QjMiPJ59CE/8di9euG+GMLu5p+d9x+39PE5yw9BYYr98MRJa4lxq5iwTJa+TaPPvIoXDmgJcDCnHzHeC6gRsAZTQHknKKsXvTvNYmZCjHOsblrHmii69oq2oN1z9yjdbKnkTDVyGsggKRS+20jQYEOVNFMDFF1Ee4kL7EZ2wBZV8uqCIwhTaQ2+s9WDdd59TXRgMZc3Nrf5ColwVBRPbEMpEv4IOfBgQUnD11wDb9ko+Ww5gxUOh3wC+NsYCJz/Jxg7fwdogH0PRth/RNL/88pevgjPtuThIlP7DQe0j61/S52EPJTLSZaJeA7sYTNjuRmU/T6+51uZvJCItUp0pmvFeZI2uBUMwIuUurBOivW/bryRu+mxnTVB5YcjOz/FsbWYzJnreuJW0Y0sWx23X9SIbsAkwT8QzGdSoq+TqAT0qoiFCY/Hcy2YwwJjKvJdVBn+KPuLWYpWMOizxRkYwVCFNvGydZyl8wKjIq0qQhRZXFBKYP7s2MGf7nMP15EUuUs/wtYvAT1JCOu96z7O5IbVRlao2kqFiSS6fW5afoZOlX85rUxl27y2WfqoKY17toe9Mx6zlw+kj7mY7ICIpDIclAFZLV45v8PhvXsmf/bmS6eN6WEUu1GWB4etfCUwKQo3rANQMJrFjH276zfmmilD4/eh3Z1LIw5kGk2jc5D58JuozDvXFm47iN6kNLjV3wS1WZU8xoMU7ZWSwT2ZwclvIgfbFwNmJYDnjEXSoh/pT2sa6VLEa1cBZrsVVSn7EI+Xhyps+306yfuTyiesWmrqt/sn4fqCzMKEySPVBCdLp/0I/nsAMQ0JtaC/mHsNB8YcW0e5r6cN20lqa0UbKnfFUkEcE1ojvNTNKGcmkOEf+UBANe7rl8Mp8bCInlR+Ls19JcJ085for6gfsW5p/+LyjWt1RhzJwWHRDGm8sXKnaTom7yG8H9gwV2O8te04mugFAa/c+/inooPF2bxQa7qE6qGJJBsiH0kmORZcIF5TtxHBwUztdNVg/4SCupLWoNRjx02ndMR6UUylbZj5yDW3dsiz/unyFHPjEFe/y7VMfQICckJ7YlX9eGGTetv9JVZLg8csAlKO0hTBVrQlQSoZVcWsgGjcdVNFIxM5JHcbRDJnbYO+Lc9GxN8eWQwyJMpogRdlOI5oWr7TjLH8zri8HkjkNFQjBZvgq5qzoqVlcz19J0p+5fkluaXTieEWt+i0zrZlQR+cxwKr9k2jSmqYxgoCSJ0q3yQPW6xUTIhFBA9uZfxpUjvxz7gpD4n79okJisFipqZgCG+r3zV4N/n86O1jvLiAmPUc8TgUaNJOZeFTH6zamixIImKsM1Yu/ntatUVzrTNS45AInuuDXWF1zq2+nHIKQM/UNv9VU9qQX27Cw/0H63V5U0VBoO7Si4NNUKqLEYMxAG8Xl/GilSxPjDp4rIA910RtqyeCJZM82en5O0hs27KK+i7gWw4gZNMDAUuzL19FnK6EfN+xLVT2uUyB8a9YTGFZmihnyaSrvnJjKOEkEI4KuPJElhgfM73f/JIJLzp3EeyP0SKpGowbQRlmrDiZNnzztqm5lleRlutNp+3VrozJhLZntxNSl+6ZOSBEpLZdqPCWeWCRkachq3VSvuqS8Wvc8kCv+UEmlZ/tg4LVBccZS5FEAaF1jn25ugMEosUcyT62iSpR91j8HAIia9XlvsLVd581EZ+GW4QmSVfg2gu4VcDtZlN0hRces6aZn3Wv3KvqG13VHLlXZGfizO46cIc9P2ZPefaumD+bf+aZ0Im1kOn/CSUtNYio+yan9nyemSqKCasYxR3Ukvb79GY9A4ZWMzaRN8n5VmdgmLAiABto/JZuhuP17iMHMzu6hQeSGPU6iaASEWAdw6v/7eh92LKODnTsJvdhetgKegfwW7Yvu48w+6shiw8b7JcqEkf7yD7r0Cd5heP9Pf/3E3uqb67vbxJXN29pamUMM0oD5nVeuyPpTrsZDLPNq6JzzJ0/MsicRKD8inZmqDlHAyME1c73povzab/e5qnUvQaRiOzd0lNk7N3vXuYzzRicQEoFhaaEbdadOHP0RRUWATDj7KOu58OMZXopfb+8rSl8+ciK08NFRPagurpEnr7R93wKMXggkhnHKCaA3LvDg52Z0c87l2U3B79yO3M+OWjD5aPelTzXZy28IoRvbpcOD5e1UKv3kRkR6cjeDgNLRc7QHTDFfEx2EXInbI5TG8itbOKLa+X4YSs7fEu1mzJP1SzJWXeLGzwgZx5OkI1geid6rrpkcoadAiQ1woKIge6K1Ua7wuBiRugGvMvL0nIIPS+8B0MnDB2SYoUKVt97fqZTcgmqIp4RDA7+EjeLWkJ4hrjrXHtEnP1NFkO3E68TjuTC+ikkBcIOw82csmZWY5GOZUyElofJIRf9stbT/mOQrig9TOjrTKXCm6moy6QaxhcOfGqgNqTZJN2qtZ1tdB4w7XZyItF/qf2f08lJQsFFXHj6JQlynkr/qZzp3n21e1IedxTtPPe6YN802xn0D/0CY67MkGiRwLyBjEAQfqroYHJE7Dr9plCLCxcIMOWI3CVjJodcVUGz9p4QvpEIYyIY0rgBKNBpgv8vBGzh6EcrDfO821E9ND5IDHeOZi7Ss5kJadN+1EqVaQr4aR4M07jrxIS2pGTbNNjGRVTlHElPhZyGH5aSAR7C5GJQ2NbAjuM2gr93E/6un2WUijI91GR9EbD2rMX7+kGEhthgxufriJbLiCdTcyru5f5cuWyk8bCd8VRZ32/Gcy1BISg0/EHpcYJXXuS8HVoHaEV86iVAbvnF3KlrOAiNTHPRMnIUESxcoyy+/Av8557axdGQQrp3bUWY1N8BfCki0P10a4tDDWZDB5r+XWEQlOLJkKQY/J/258PP5tixTaLq+ghM8zIkWe+RTo1oTXysJyuaV5bQUUiEXxDRSUkVFzn04HN0RyzXg5WaOvo0qHHYpwVzhjb54h/DWC1WHnox486eGHB4Z2fWnjsOZdcyE0NpIJnrVqZ4a29Sj4Yj9Lb2PV3R3cye7N3dOZUpfTi2QcPNT0zRUze41JnEfaldZtMN0Pg8ID7qq+vt0IcyCG6A1CSoGDgOUkXE3UoM8W5E4VdYJyKSvrk5WMWbXpU3EmrqOXbUDzn4Wqs7NNe3KBrLNtyx0tXYB3KIsPMbTK7WZV8P0cO46WxBrPwKHSiJQDGQCSeKMIzgdbpD4HgwHlGzDB3O0Ew9EdM+6Jqqa/4LssBAqhmTKJv9VZE6BZmGv+mujriAAY/z7lsRVzfainiDMgjpgIs/Nk2qkrh2j47SsQ8uCVCouphwOkQn0a/8uso1UijuT/rAx2Di/+ONfTvdNQGlKuwb7+zJW2niKiBz9yXzNwz+xGWB8Hm0tH1HzyKjgcBwMTvm1KV89gw4j49N6Cy+p3o7qFoWJCQ3ngrKbwW0USNsDtCV8LCEZP9IJ4KwQEwg1aCpFcroNAJpVm4s/dQ+w611GW8N8dLd2FlODb0M5KGzH8AWqO6jPCPOXRT8FDQnP5M1WRYuJnYOlQWCINBobVlma00/UgJrgQg+f6EBVTl0HosZ+z69GDhtOc/f39nIeJTxbGv7Pj6IN0ChxELqfbEabQ0vjWP21FKUMsF2ZmFOkKocAugyV21itiWk1hj5yYWlovCrlDfzwF7mn51DlSd6euG/umIUG6zQpFI6aQzJY797uqzyprI04LplKb7nk24hrsuvj/Owz/tWNaXeZjxVMpChUH43aZ80iS96cHhvISGS6Vs0B/w5WZd5m1tTih0Kah2rFbs/5hi+yPcYCveJ8CP49jO7J91KmmG6HNsmNMmTnxS09qf26Uc9icAbv+g2DzQp/DSIocj7cRKhHb8UKtpS3Pn0LkGV+YzQ+3zBkLfKyv/bVpXtPqTC3F4Y7xOtsd/2g7Etzc/SpZFIY5ZYM5uu2S7tvttFwghRPJK2kAxzpIM5p2dd6WSKKJjKUZSDPiIjqcGgc+Uk2SEXzxia2ahHvxIoQaSd2lCurudNOxw2QYCbUigBiOB1vcAvf/yhNqpL/ZyuvdzT2ULW0bFEabnYXeXFCUzM0XMI97Q7I95/WqfLpwTZAnTGJgcPOK9jaVfpYBTz0HOr+hAx+gSJ47ef+RHdO+hudGE5Pk5YcG7E18XVbnPtDlhcMc+MzrB1mNyOxUcIVpEipLOHszTCcFtC+XiRJtkvHgtlB2GEu1qv7I4XCcj8tRs02IDdRUgMDy5MW47alJX591QPN+Vca1PR/u+1IqAV+H+/C5sDDUAOppl8dVCsRzy903C3OhAbBkr8UDV0uJBIeOVWXbjQ2ExN3vJfIpzTtlxcOHGG0dOAMERDtrNQZa6QbRPTnHy86EqNUHM46fEw19B4siC9B3cnGM0OMwPhGdaX65xE4/cvB62BUm/vLY+yfTAXizP9aCXqKUyBAA8tontOh4j30F1HQ6ed3Uh9oRrNAGqBZAr9GP6wKOkNrKC/MuGopqh4J0v+ewzcMnoNPrZCNGzLYeKqwFkkzV+td3uf3cN485eJMmWQ776dEjeHAniIcAI0Wr9ytzvjVDeTZeQnSF1fKgpNUjt/M9PYssATHWjiNif3xc8+2cBw0KM6Sot0Ij1yhLvGBh//rkwyhcw6PGzEGKoFNObvD5bjeEe+UzpvAV5p/5fnCqAyD0CYSCVpX6qLB6zwu3Z2FmQuWwiiDWbrFHHOySF2bAAWtxrYjObETFXeReZLcWxdZ6DyWQUGjYnt//yrbA2FYK5dEKqc43PatG1oojqE31cNaH1CjLgTLza2Hu0lPNG1yYe3M3PV3jIc2cb9cT7tzbeF0RKgPO6Uz/HV1QO4me3o/+N43Do35T7HWmRSLzwbpXtVrtyUPt19FYrAurpdFTW/11imWvQqg1+NYtx4buC7fQ6SVSR0N2NiyFDzM0BaE5Y6aByJahfv+8DD7i18jVXpm23PP9iM8DRwtnPZsh/Y2oZc89yh0VsoRIfPM9WpFM+EzW8MeHg8a+/MBDujbww9oxf6DQCbcALeRGVlkw1xRDsu8AIsISChFyrEXjMwlTbMvCn0/Gpv9c3tlK5vFRqhXhiD9q+vVsJRn85bCFwX7JfJrrpJLuKc7SM/7ZU0LI5WYc/qsc4P8KQwoSqq1uLEc5UBVYWa+z0qxBmZSq+7GTGX3hCj2hBzXUoFwkAieWVDM7dMUat+hrjHulHcOZ4fcvvhyDkPrQg/kv9dBb0YHkFgTJDCYaW65QnoXsu2xUSruk/dftvgaZmeAUy/VZuP601uaAYbdDmylof4WLrhgB6mNoSF3nwhod8ViRYwMzNgATQIgzHvPjjyQbRWjee0x7pDuRhc9z2FBBRUNVUNxhVMTI58ow8nvko7N3MwGGQW4se78P0t3GAYgjWwmPAZl8NvMK7btd1Lnc9UzlnJQ+JyYxnLcKnkz215u89VTdwcovJ01PYpAVoiP34bD4LeQCfmogy92Eblu25wjaZHJvDy396F8S4hR0irTm6o7ZOH3eTUxGpR6HeOZV37IKXIzl4rQ/ItZM30ujpPAkFQLS0JUiOpaNVmy9iScbPUK8B7tHm/czbECbiqN0Nk06FzUPNq+6hl8iM5fGjIDXZmhJjOaAFZ2YdODL4VXukBaDpjyEcqynakiDzihwbaIKyJTRjHLf5/vd9A2+UTfk6dOUVe8qLlan79oJvxwX0znUofcjvqYaEJaEznJnQvo36PdMj7AZXqRnnNARkhzDU6YXtcfIpe6Iq1uRQOZ084ASHOrtezhvxyk9bzc0xzxIIk8I92KUy/w8BooB+Zwj35frwOtolxJmttNRZFFg3NRzvCartLgjZ1KYPV3lEEIFdE2q6dQHaBsCtB2LJwCikR1Nwnr2EgCCr24VZpdqdm5zHzBNF/nuCqmXEh/FdWp921SiPJ5eLkPjtYcB37Mv5Lxec2AKDLWlEwsrATz/rQKSNyyB+KLsdeDNa5xm14kLIasnz5an0BXA3XVumxlgmicsyJY0S0PSJN7DMi74NIRCu2eH/pTPMIoIKjt2ttaEpa/spMLf2Qb5uuhNP1MU4l555W2WMMd2HxKx3UXOmy2TUJOrYU9Sw54eD/CjmKQRr9PfaD3fYDmoTs7ISjJkhovlkBX9rDydzAmpvecwZCGzdgv1SMnGRR9nec2KJoxmM5rOX+m40393inPoUrEPwce7Gq0BEeKiops4LnVnBZbpVkFCUTH25yfPTYH3qeRNgDC4PSe/wHzbHQXltlA2bikVwDXzdlMXps4IXciei9zUc6Bv4YVxmEV5J2O1SOjZXhycrtj0frwRYXjXqNk23t7hFkA3E7Ubn9fyu46Dh12XclSRdE6gmizQ5n2EsswL31HG9kGkY8IAFcBFpwWRt/+6/tOrH2MgKoXuUM2GGhHQhO3CgVIdEMUcFCYOiY7+ZHRSDVhQOgqCH/NgAM1irDdHvxcZYABA1RLqqSSlmn0sR3C3ITaWZP3rRVJ3pXKTqjHsPo1RTXotnjSsMxDZrnNi2vu9U5/Uih/KJgOiTlxBQXe95m+61sDBpKtquEiZZtJDVmhEpbwAKJxQuUCmSmCSHN/i+7u5gGl3HqN9OYj46TYxyW1E9I/ExpGZQo5ETHcOBUs5AxyZ7hrI22GzU+5B4wZLlGP/gLgVdux2FW3OEjeYyVoM7wEmCy7wXo7fn7FSlWR6ktKGkqyYqWX7DDBxCS5rmzicP6ssboa2KJnRqhrL/govejr40eu0uKcvzJ8h5UCAqvJOmareAhHz3ftZxRJ7bVEsdnTum267x67d/9c8j7WG8/PTPLqYw1knyDGi9uokED8i0dV4Snt4ucSUQ35+nIh23o1LmVpV6tBCpQ43FAvRPUbaeRI5sE8SUnW4EM30E3zQsWJAF6K9jylPHVPZvLeDwZPrwKD0owC1IOm5XBYqETkxlia7BS5BcXDP88/CrsKDyom/bKAgdkS/5nKjs/UMTqkaxrQU8woG3MWRp0q2tqWMAVFX/2QaaSVhLTBgvSfXgllboCjOf93wt9tilTVk/HlIoOwabLsNjcYRiaaRS81GrVAjfAwzq6IDOHLJsXYVKBR6xoh/lQyZJT4wEyHnmVr1ikJtXsqKcEzf4a6c4SJ22Od9TADRqIjWvrKA7JXmBrkayuTHVQ4ElUuGwhBcaPTBS+t16/gBC/KVXsLs+7Wx28795iHeE2Y5Aw5ZkCRjLt9B4HnHR+wGkyAwJfvokqnUlE2VLS7YA9FjeGa5AUBYtLeQcmInCEhj7TIEkB4fYzuQSMr0IYzD2KPy4YPmotyR2vchtWfcung72jYFbtOxJnUX2dUIIO/vG3LQi/6lJ3vmpNroF1SaiTpzetigqH/e0+60YpoqvKa1D69ueG8NStoTQ/To5vE2xS0E/fz/5yVV2o1ql0K28Z5BHNz9+Yy3HsR/825W9TXcHbkDnJjs8HuZG7eyE/sT0vAJN0Phvzv3NU7eux6kphHn2qbE7mOREHEcK8L3BkIAe5Sr5f1Du+HXzXnqwI0+lHzLi+Nnjvl5KpUZIyUsqt65AzZJ2ur3ye6qixJIjgosw4EfSgQYHGScJDFpiMASZMEp88yn7bARDymJD1iB2q1JoHc5zcOVUGpxFGiAbBqwKAPjQuVZH1j5z+0awRvFaQDFGqmnAEEooMGOKD1RzPGiGY+8KYwZVDhzAOBNAb2SMPykqgXPT9c6nnJCju0Xg9AXToLhlOeCy+otHilzOtQIRmcKzYgA1pvV6A17hsAwpxyMEvkN2B3gebPXUP+BvgSIzkP1oaHhndNhEIIo3BO8tFx38uzbeaHnq3siaX6Q4ZtKQCvfU75FVfckHQjIwGfOJRnu6aLeE/06DKmztkHGjk+Z2CF3G1gMBbxTRGrWC6hUn1XlqI8i2pIDug/WcHgVdVMM5Wc17YBoYt/cSb2vkeuwySmv2QKOUddeDMPhEApTiRVtX3IsjqE1mqws+AjZqWdxuECMsMrSD/nkXk0J38BccfBsI6jHzKsZbf677IkXFSUKIVUZPFoo5uapT4TfPCMbV7b3KlUbJR1XsmtHF7O66cqNh4HmK53dyERrryGDGAMWkKR3myrDQe5Ey7MXN2RIkMgp5FGtd3RnDAFEptfeBIxVRQMGJ3aArPyoE/cKJBCuodEhCQGZwI6TgM2DkSvkYANO804X39yvF3sydG7r9hu7CjzVdH6yMw1Wgzj6xm/gJpXhafDsGTIdL3nHwvu1EzgJPnxlb5OmNotz4PPzIOdkx2IISRGNEUvuHPzhCVcCKFNasabTKQCpG0pk0rgEfNbpm1IZweeBF/MNaF0jcp2+wq8KN4CYxIrrjTR66fZaBGuNO4PdCrPxuUGcl8hWMmjDBTsSExaRrJHYmkg50j/rhfpLEoOj1i6ee6YyHWgQhql1zUFae3EKqfnvBHm6QbodUWsB+jTbs7+ZLYPwdkcwWSzNkI64pZvVCF0wtj4g6+yBVZ8DKdN8iuPnn/M8dVPvODJwZGy8kcCb4dlD+2ulDrQwX/iLL9RMn9SG3i6QVYJpkQdbcc0JfnjbRRLAHBfwETunlsBvpQXAusbDfhC9tG+XF9WwL133MsHL/YSDwPcEv5giK56JM2UVpEXY1zG4frxFrP1wfJe9wk3s5ZEX+HNlv1IIRwZ2EEf6636XR8pIAxzkjQ8xfuD3h7Cyx5ZJri8UKtW/Fj9/k0+eo0H7JLigzfYJO9eZfTe92dnsFG/y5FZkDLyUU20xW0A13j2gmPLrQ1Lx/QJ2qNOU6ROw51BhhbmExCEDueWMMbdvCOGU5KBL5/sHWAYe3P16cXMKokG77mRRDTn+ig5Dr5okN8QMPvRsmtisfX0XXT8XF0cf3idkGzhhtV+EYexC/LqnpKFS6cRL3fGAlPaBC7gY9dto9VmZt+w8escW9Qa9P1fIUXwb+COn0jwLXRzc0bN+QoyOkVri9ECsvV7m65zqqzvg2qJagy0s8x+h/09wVnjm7qC3F0QkNzMV2RZ+QIjxmhm8XuWYnie1NiYMOFKz5BGIcMDTChao9ETx7ru7muerxKK2cBhMo5EQIsSNQD4So2A4SEAJ/E5I/iSN3qEnj1xPLRa6o35GLNWtzdn2YgZrpwsjlWfg/AIDW9o1TU/yLo5UYOuc5POy64LU4dhOGlDB20jREBFdCmcDCS/zABkOVDHOnSjwVwydze8AKQmkx2E9Yii9FfsZR71p2zHy4A4COLCBmGJYJRrhv6yB5QNGSObH+Yfz5dj18Qbbxx8nW987SB6Xdl/QqpjHt077J8u3/9KE5JDPCEbTWv2J9dlRImiL53RDH/IcmkWU4/cu4g+eBIrc4adyYE/3chaBCqLZXFooW7DmTCi+JcXhzgn6bhxlNCeq/eWzhsk2drd99gl9fVeHqG6/pUWBVIHJRorJyJf8P5wMh1n42KFfG8hpY5Q1W6lhAZDS3LLzV/lBGX3WdBVZIe4yaW2RyaE5fAI0JdeM1D4hYS8CLiZqW7K6UVhcP2iG2bBYelQnBWySLc813Bbxl8fUaKdi9w++yd60BSTDweNLpGoQ/lSrLCYxY8NNbLeUyD9o2mepb6cZ6Hu0PvYJ/fs6s7Df2F8fp5pgvSdN59LUKvjET9l0YBIJ20Np88dq5w1TcbNnBI8wLxQsC5Ceusrvvb608uacNpwMmvWTrva6NqOvem27xBeRDvuI4WH82gaCvDkM06Nieucbx/pbAqX5ZvjsGZ679b/KuUm1+gbHTc5QYC1oMnrSt/yA3Kzqc+dwAVab9CP6TtJV6yfhwec262aQJ4JHC8Wqd6DpWX7OOev90aiEMoL0s6/eoz8LWho2jzpdfkzTl+whtwUUyHfQ3rqIZAlYKLy57oZAiHvOzBzFbPidtJWQXaMKdHH67oiHwOfCLkLnippcaTzPKFvuE0n1iS3uEw2TvcI0WHK0GSGopZTq2Ea6l5w9KzEiGdhTU6rAfNJyT78WANyarEofslz9I+27dNUtNkvLHa5z7FzVUbFPSwwD/aF/JfP5zJqGCEe7MJZCUNCvVNH4GZTlLt7K7oPoLhmVWbffJqtucdN5rUAESOIB6dDO4kdX4DUcUupKpTxbuLh+Iwm/A1JCIr1oycsH25x9xzae65bNZ5NZh9Yn+PFiQhPPAHcSI1S9qPVEdR1Izal24bJeyAe8+Ge+8fMx65kWZ9kUwr/ZgBKCcafY9hRlUZWiHKZYj6SVnxkOQ8N1mvorqaKeBu+1QIsJoKdE+SNb8A+1zmkD90qdyfIkDQ9F85A/UM7fBKvKDaN4t/hpseX973mfFPztbvqDCLAdra1fU5TJ2pTd20j1cyuE8baM1KkRh93gwPDhwZOrqXEBIUI8ycJAnX9dhW/Wisq9vv6WU6+v2oyUK9E8FC91gEIWd5Qnwk497lXqHUxJmfPBFQOEOqETBEJaaPZsE+K8mVHjkLPzt3Zr55BjSWYfzx7lgIwwK5Wxa7+BcTUF6Eit7Tb1xO0YOqc4Rr7Ss0w8DXxzO778e4h1mA5aBdwyjGkS6Zf4/OzJVlerk9aMwyS2elyLxbgTloXLjzzkEVnpKu3uU8wFpSd9dfGG8Jw1rlzQCGOK1qfn4+aUjAAt9eSXHCD3+dcS3qSSSuCxxyHEVcpxs+1btnIXhckHGjuME8yrB3JJCnsZrDmUwSK4oqdkZFvbsirYqYxyuBzdxGrDaEC2FvsmeAFO5kbdKeiEsUP1QlLK1DkkKPClFAlxcw1UaN1qKhEB4LwO4f67W0oe8MoIUJ2TOxClE8RnRnBsoKeimYDNUOcdr8FaznsmQam55iFs9YugWa+Kvs53TnQkHn1kr0SZX7KVXsqBZRpHnIVsV0t++0BbbrxCFO8ulVu1QY6raRlZ3dFELrtz4+YpBP27EK1UC4iiQiyf7YnQNODiqrTAZtrmt7k1n6gFfsm1eM/Tg0NHrBK7+GX3lBkV7DMLq0FRm9mfsPyWkt6SJ6WzJ5nhXd3jTrO3G48+ILDgtdHf6vE+rHWrRMiJaK/iQi+HYmZCkCps+IdDYc1ihCBojHxsmA5CDslM91wlzWxHTMLXGDMvlo0za+yDvt9Qy4Wx1VTUuaSJPLrnCkre8XJEb5Lbqe7DYTqqrCIXDRw8AN5ewwY6nlesmDNE0bgc8hGCoQ22+zc2zGC+fOmNI2udRxu6c+VY5dg886RKvDN3q5xfBzK5wIMPR8tJKfzA4MIhew/0YuHnU2wRrBkH1NrqsLBGtpnLj/NqSXrSszH91ZPPZ/Qn4nvMJ3v0qSy6mYNzPRj+nuocI0g3uIynxoWGnNzme7MEeLyH2a+XhTwgwXazc7JVYudrXT3fTtnlpGU+EZtV3tB3JHRww+aueg42XVSKcCzzA5F/EdNkkI3P8MS2rlBpWcjD0JBRpj/ZZZX2PIS2pSKFCvU4Mzmiw0wAoojii8qAxN00V6zvkKh5j5v8URNjCfrfJSrlD3Lt/KmyMtSmvqrxvbulnvnCu1PXo7fx0QV/T+iMrscPv36UdAmIaLXymeta+gFwUQ8e8Wls1NhwL5qNabmxcp4c/HsHlD2OtpfTPQY07Hkq6DTtHQA4/WMWXj8GpDIPlJ30b/i8Mf6jD03hqMJ9Chy63ydDcUmD6G8x5gNWAomJVU30KGl4aZUyycHDsBn0Xs+gOtEf+ut28XjU/P3TvWpbZa/1gp9FvK7VqnPgHY9S9vJjKfjwEURLKjTG/E55PTDjtPR/3H93ZMFtVJXnAPlSN8+cyeJV4R891ZdfuiiDti8/FXEllIIEJP4WyIGB5VTtrMIwhGB/h7iApezCsJ4IgMpOhEOA20llQUO44/eSNLnAWy4c31zK18zi8DuE4AuIBBJNCLd9h1O+iPqg7urioQ263q+t+tHUknpcSAGg09NE9SD02feQtCPwO1xLklP3Pxl+BwIzl7t8WBlcsHUFj//02GS5Dqef4GhBJ/D1sHV7bDmjYZ1GiOuYjcRClK2nrPo2SYkMY8+DaPsnojtvMA+8UaQEX5EI6vRhI0hjRjNvs97+rUtZJ8NXKggb07tklrqgoW9yabVVZF8jxsvE53dRFVcx+IyNyQHEMiZXdmgk0Dkv+RBeSaE17CH9twY7SyUNtWVVxn+JVoZ8oeBWqFtFoqC+qOZUSHWPlrwl5xedQAjBPK8EuVTyc5nSoINw5aTImwbUrF/sJ6yElIIoGygfSO6/K58N9q1RRgPZJcqEmx0BFaFMEcptwn/E+nnYs/4WiyAb6saPqkqjOvIePMFN6uxmzlSXonqdwYugyWTVLn0hoIJVP6L3RaPydw31JRkQGg6Aq92u2qXhupW2KgLoCv8r64q2Iqg57/zY3aFda0cDga8uO+eHXMJG59v9zcwGQdicxcBzqdSQYNT1VtSVm/uvTeZdkq7TufZWkoDKrHuxByxd8HmEXaTaYv/9E/qRm4Kc22UC2S8dmkmKP/Vi5tb9Tw5RkXKynIBZBCF5dIt4dbt1OpVzqUvfcxvvXAtSx+6hzVlffkP/d3YXW27tafTDq4cj7an16WiXVzDqWH5876tp6Y3PDM9EKCvHXFOVnpMKs/9Jloq68QaX+dK8ONPtYRUVnu+9Ti0DtvCBWjCiYkT6i6cG7kd9E6qaxpdiIBe4Ko2hSnaVvgvrpeXBASXzPenjdZwpoYVZ6mSJmvfmBO8ypBiKzBLTOgifT9OhsJr9y/ei+fyMWd3Zgvag3Dpp91wfEjTmCVgJV6LbuxKYdPp2Ep5YmS2GgiAu3zCerHN1y/rteE7HFnao0rTI4qHxJ6r2ll0mkJ3xepLp6ovOXO+ni2PnUHHr+0Gn6QHYXtT0zLn3nnC+E/BPa/TqxZwfdzZIsPCUuuRr0+tz4v4nAyCfrfirO3E51dMufm7fiDh0bfSKKB1OTccaHx4ghzwLHLvTllikUVu1jZV0T6Py3dop5nfjI5mPh2tMZ3omd1zji2ZFOCeY+cX7gxT68sNzsZmd5NP03KN00xrBpHxW1v59GYtnpU6HMOThJ+JxVtsrVleLugaz13HAvPxsh2C/U0XAM4g/EulvP0NTGiLe4LPThMuENoFUiJ2k3Ho+Er9p/kcC2o6hryBkeKV//k0AG5ia0QrzukwtfVrDDRGOawEzDVnCRTpGaMoHXjrBzPSGusnynHZbc5YhLtx+65a23YWpC9U+P7zxprQacLMlGXTK/5gYANQf8ClvwZDQu03J7poSsWtlB5DF7/IRr9wnZIyzlNO8a3HWf473Vo2BbgaYv+S+GVQ5RV2wInTgtOlJCMmg6xw8zbAq1Q3T7kVWhy1ydVV6Cg2nGz/e/dq46bvLDyL+uC8VDi/0yia82v9YiJNOA7494kXq1GLtjajjuUU8zIyC+HVjHSYxxbkTotN/xNW2YoKiZCfdfaYDPq1DzlS5BnL97JHrkiioNK2RXsHTZ5whkdSarWxm8OmA3pweeSI+muhWiX6Lv6rE221F3TxGBn5W1O7WgufiUAYHEUXA8MlgMuvCRJ9agvWt0EgA5IN1hWC+iNlb+Ksi5Qyq5jOEiL0D6wTkVm756lmX2o/AgVGtiilIWfkU1KywOebdcjqCNllGqGQ8kPoQjY8nGsvH9I992sZYFhsHYBe7qq3e8nehKDCKES18+DFDeF5etYg4lTNkp+g2EGHb7nqWHOuZqN2NTblBSgAlydnemswhzxOVcbxYPeS/a5QrsVg5+CfdXqkUQdN7ufpuIaaRPrdulDZB44kc/OLQes8BqmsKgmRSo1pOrouOXDvBjfl4jTDVkODg1/zvw2gc3NCjP5PDieFVarxz/f88w9MNejAwKCkGzv0aOhIxhR5Ez/NZN54XFbKFBJ0DwpvmhjXPtZURu81F6Z7VQ42o911uQPqaYCLh7OE4yGFS1OzrEdLrLkA1Ag1AvMW50JpyLtRZDNk5gFYunUNfuK3fgLxgko5k6+Ztn0rp54yD03vWJhCNvw/hDeePvQIiqIO0BQjEzgz35ihN0CNov2Z8OLcwlm0Gr1GrtKAuI0wh4kqivqO2ky9pQ/2+zc35T1JLmq99IMn4ItIj6IHfmFMKPesilVFikDS1CCxCHS2bwcHnxvONM7/WBdAei+yLez0UcDAIPIwHPJ643LDRKriT9xpfqKIKp13GOhTzu0ZASE7bp+PE7FFx6z2v3LpAfE004RGz1DviQIIjTMnJdv85dMT9teqvlSJbtS2Irfyce4JIfvCydSphc/F/MvQ7ElTNFR2wsRT6ZeeOL5/M1cHvKUvB0VHx4K/JZq9w6Dr5nTWW8nd1zED3sYWWBqhe4V/1C2xAnwjJI8lPMsbBmUvNuSHlR4jECHEH0QjEd2CSkeO34URDrW2WueIkhT0mQH0sN5Av3gSJQF/MQqloXjJN5Xk0S02IgNNVxM5DIvmYH4aEPBG0YORKJX7oWEI6HiutvG/PUi1Mp9Jf+Undf+mlrxMmG7FsuHzK+ifyQJR3xayAe322M1ZhWKdsBPLXvzGaagw0TVodYzoz73Up3kCpFtMDp0Nv/augT0SOv3kmLLUX5rzFoNznEnk+JGdN43d84rwu7xQuZa56feWxWhehobo3kJ8AQeaDQf6vIHa+6ON3+As6lRuvvLfkXrFTzgQmHetyliM+LxF/yUlljvpyQWFkkZz/PlBsUDtdss98LZ/gTtV5bz7+G8eZJh9ik2nLU6NX31Rn3cSTgoFlzRG95fD9UDNzotw4CFvM231ESYewu5ib+NQoCY499daEFWfmQ8qjc6MQ2fp/QmALyJ+XO82ogaCTOxL1RhpOQP/bApDvhJaLHpPzJmwLgOtzr/JmJ0IJ5vK9ViALt6yeqDL545yNyieoNFHv8T9ZlJVlCrFob9ch6ZUa8QWFKUvrlEwz0HDs1zLEYzY6fnMegFCM6rBsSlL2mTywkFau7lFegE1FAnXdM2Xw4MFLKCec8usQbVRkLxCUM6+5Qot3+MX0LmTJj9s+5H7TASPXh3m2f+HKreJBpub1VpqW/F5T/Oqj6JK7jue3FFUYkUNhGA9ytLhk0cG2IkLP5k8r6hPPX6n6/cpmgEEAbcZFY4dkZqwuN4qQFwE+nlvdY5/oYFOU4ntM/KxiclbeCrQZ4zTgTcSU3GnSuCPYkQjrR45ziGy/uEJrJ6DtXVQa06XSsTH3DZ6vgBxr07GZee1zpAWpMSMPCdBAhkiwus3dStyGgpXcT1KSp/VgFeudJPeCWd6B54hvRAhERnSK0CxjSL/aM8ulCwiz/srVglRAhf2dfx4vXg/ZnxOUw9Xy9tS+RGT4c0yqiExoTPU/nORR2mnGErqVozGbaY3Bs7v7dXjv0VZ3gCK9oGrDO7OfVyMMnwO+bL/L59ZbhMef2JIMPrvMKCVCXq+wX19AnlrAcoY6YiYG2pJtD0PwV1fJoaD7ZKeG0bkQZhDML/qbvZZB2SqL+d6zpUb3to5AUIxQslxVIoI/D5QWbe2c8rewhaaen0/q1rJc5ZXSJcMFwt1yMEhKv8S8zymcIyjQnuIzeuk9Apf05yTZtluXk+edYZCrc3WZRMuRT8wWEMZpuxdzT5FZ6CIvVTtd3ZO2FNEzDyiqDm5jea8a69UnbsPaPvIwwUQNY99qdB3CHmiFsYHE9ktBnfVdfNcWNUvbh2TDwz8xljOGgp8qarBYGANtibVDNuS3Bk5Fp2FtzCwVD2nUXuCemh25ObZgaXpOxBW183gLL2hWqJcUsllXy3p5bCX9RM1YledU8N8mOhowDQRL5y21fQYXSVFMys0fTZeVuOF3PfqXQvsg1nzFYFRSDC5NipdRWW++97PmSbrEamu0vR0RbvErD1EGMWO7kez2c9hJJ6XvY7c4a8+35f7xUyz1SIHdsFswpxg8zkzEUkgfJ9da7hkX8ydkBXrr5qpTN+MHQSpjuBrNCUc5RO/SiFbvDiUIHty2fOzG+NhLTtwlxffRK9HjatNu4UqyrVAVTJAYXy/XFgL9+sfGfhPezKxj5WhCSemhO1BAXQKwaq/izVc1IaXG7TAkbWe1oRqOA8Yp3OAM+NhMUU7QK40vEB/c3G/CWHQ4x7XpBXfSZq5SEu/+SjKE+hIllkHu2YDmeoWvjSghqNnG6WXxLk0oOcN4JRzdSRpdmCLa8INAxJBBxswgUu96ZnMYG4vc9kMNuYyp2/Serk269+dz57l8u3RUFw5R25QujYBNArZcMhy/qf6Sxvy4vGsTidgYGc2QVcJX1ua9T7hC56UqF3aIsqOel7qBMHM7BQmQr1Pl/1fRHcGGnVhtiEgKD52HA/iAYBPsfyw8+y+q2E0V7/zhGZDNV2orO39QL8+KXB8XdCgi2pYFa6rFOAdKoQW2u455V/MDwJdKFQj4B+AylKGb6iXDU3ZFeHL1PvufdNu/yTY+23IVfLFTtQF1XhMWvlPJi454PrE93kHwwYvYqhLjSoM2ZVoKiCl9GcHDi7uhhQ334G9KUvTqd9Ex9DgWNAWfDhmGb5UvOhGU31wm01+LFuYVaSM+p9KtPYBdPtQdDeTzngsRaLtbtdxDoMgOyRWZRGa5L452eDuEp1q9K5BninAPNsMk0tEF6vXePDc5BWn6bN0KCfiaNOtm3/y95KaRHb3SAevodOtfCotAN1bxM/eKKYIKMUBcr26GDUg3tAknzQoJ/gN1sXkJCNVgaUXCr7CVQqekopST7F1Hlf3Ld+FcsKCCCbE9RgAxxR8K3a6Xs6WQxmFGqGkSw1zmmIP21pEFoyOQIl67JsfDX+HRdf3mYg1QfS7pnpXDQigfXHLxnBmF0bIxLRbEYA9v5FRK1kR0i2ThuYPz0L4iN1Gk7dFdbvA528dFULXdu8df2m74Z5d8uaPrNd+nosZVAeHXt7vz1T+IGQO5JAxgwnWFXAElxV8Cr5dkh/G+YkRRgX4jPyaQtXTNAZDVuIAq/oB8DaKR89qx7E+BcDCa883UtBe9ytGHY7MQ6BewWAKKv4lEWb21j5bPAq7orid+J2qpCqxzFC/DlUj9v0CucdaitSRBbQNcSXYuMOPv2LwiDD1wCwXqRrcSa5U6nvR17YaXLAukZfLZSaxB5TNoucdDnFDVwO72CtKkq5G27fkLIOIlDmWQZCY5O3xXIayyT8DBSqWieIdVj1aps6wTpXB46uNn575RjYI3Y9q6F4kqfZW9C++3dUqFDYbmYVv+1Zkj9na5EtyS0LXsKnCZhtFVoj12m4AF3i/mgIZ7vn1P/O/QvJuvhW3Wev4Gl6ZgBFs6b75HVSTMtebeYKwI7AVAWicki0ujgbBLjeSGaJgKj9IGUvGxJXpMSIRyPWCf76updy27gFxHVuBw0BrRlo/bEj5L74syzpgPpDVIJWA7yFbsn0Am+O6FNBgJgYl/WPot16AUf1f2B/HAn58INkQ24YrpcQG0tOaSLwdzYmceJqCww+MMqxg1IxDmwCO4yjtiQSAxVKglspiJdyCzLdb8QiVrgS81pO8q4n7MDdemXhXZ1pxf5kfedFBSNYDx0gD3+1EQ4tE3SAtXUBo+qzNAxI+fPzmQLiyOGpSa4O2V+DD+868uaBSttZPtm7bhlH7DZ7hOcjcydLL70vA0pg1xo2IxKNIDnB5mxg/w1+0wElsovl/0H/e7eNUuDHqLjIW+vgwy5p6g+LebjMHiEVFQF6AR4LQCeql1aO5Kxz+zw4dd9FXERKtGUMLQ+V3Egf9Ag9Hvr6Ra8qTITOWLOwGFXJFQEZ6JE8ey4k6Kw7bQbvt8/4oNOippjzSYZwmS8w0ps0G24ZhhJZxp/X5WhmF8/jdrsRd39iEyC/QC2nf/bt6zpkn3FMlVFOUel3rRxhzUnZElHOvERscbP6fVFBgX7sQLTBo1dp6bYQh9bWdeD3WrYMcRonczZTpS5ZivvJzXd1CG1xCSc0dMF4v8x1EiyDpWCPngoUtTpND5x4iHfjGMFeBRBYtA0Yo3RxMeX8FWKsQyVbseksfohYvgCMUTv8kXF50OZQmzGOBsl7/Wj2YEliFMIJ4vydx4iw8YMPzzVIcSN1QPaQuzc1pe3Yxo1L8KltjbaRSMvZS/Xk0V1yDSfm8xV/eCP4F7w7EAb7BNdWOyD1JeCF/FpoPuWf+YIrG94uniZuovz/mC+vZdPxFK5yEHVQxcrzTRJlTCFM+T+p9wUTkKbM85M5lzI2WfSOfFpeujmjFqBMYqliWoq3R8IrXsOaNOeKMNCvrc6XmmEEn5eFGNacs2jJ9RLl+VW702NFaCprKE89jNl6WktPglrj8eZScZ/wkOzKtr2d5wrWSCNeLZSnwpAUocFfBly1AkgbmXaKHuKhqNvR4jvMMyZyhMR1+6OLDLsM30Qj9J+dVofRxKz9jNlgNPK1GWbEW8ZSmA1JryCPu9qotBy1iLHuud2fqoY6ythGmjAYV8FknkEEz0Tz4hp0Mn+4HORgKQ5zWtrO5vRuu63G7lpfG6ZY8VgPNx7BlCgONZQPKfThItmB9E/QB/L44PRue88ZfKNwHhzYOu8n+SdKFLL/c+IAKzYRW7jbz9yO2vhxG8wpU47iHao9HBPATtiKU2ujF7mIOY743Bwqe6/MEB8j4C1pE7wiu7SR2cFGGUetxp7+UdCbNUUhsFzOL6LHAIURU3kDc50NvtKGv7DdVZCHQLYZKh60VQgicwfxNSNZ0XaxGSGQvtvgG5S6mg/2IJwsnNl7rvIPW18G1PYzt2CVo4CiG1GDNDjEn8PiC6RMbG/qeU4tb/hIGrR7QSQU05kdd5eES5uYnbjDnQMht5E9srVbpoOMH1B6i6e3G8h/6LWE568jPklV8yBjDZXLF1/tpL7jTCZXA5TgpIOdUDuX/Zj8FyOu75bqu1LrvPtCzPsoNEN0oUym89DamPVeGy51hsirzmx+JHRCV9NoZ8Xra2wyo4Mga4A2WmECR3DvwAOBfKHi3b+fe4/XM4JmWWPNWcwVH/BlV1EFB8ehcZ0XGl1ZHV3MQqrDKaLVK0nsT5hFuH5FZzbg2Iy7XeSW33QpLmwmcx/twdeQN4UiwaNbK52xyGFWw+EWAwc6msDiTbJbhwAJ1LMT9fZyfQIl4AMTyNp33iePUkbrdfdYQZwxtTq7YuCdU1wNcDXKREIRoaHaqeunQ1nDkKuJP24dvvHUMVdUATbSo6iTT27mhuUzD6Bg5DkXHA4/R4QSxEP1k8mwYRv/Fcmdb/tlDwHoR9PcKpIG0adQqB87BTX35XymxnFe6JrMIJezKGyYcMvn19PjopC9qQ5YWzzBcm+o76AX37R0L48muDHP3Nk54SBMd5phVKQ3Y5x8uQL7/16803YQR1vhVY4QLIT+25MUX79o9B/HOJLJlq5yhDk9pFNZa5wHs3Rgq0IvGOuGcGVt2FtU7YjMPWWK76Fem6cMpOj/emdFjJi/59R07m3uF9SDZtBT2Nv1zuLz2BVTXexFbdWTfYd1YGXHiSw6ahte5prSCYEGdormyfDwc3OM63REQ/3AcXs/75zRuoK0oFxtAoNoXoedR7fNShUdbltug2sX5Nsca0GpnlivJSB6+KFanvhNMPrxSZDOJknWEfVRN40NmW6SV3TzmShkRsG0l8bcL18I598zYgsSxgRxtoCII9JItyNHn5A0OMdHf446P9+pyez5Rz4J3sJWPnw+oq/yJGNuUabHV+bb2yGksO+CeFuEmFKHiPi2dsDigh5E//kpZ8KE0ITtglIJxXIxiQ/EgvphXajxq9ywH/fv9wt6bjBIRXChk8V+aYUgxwZ9JkFWli8rFgMYwl0D/iVWEpTGsaLbRICGakPOhhxCkQ5fMDHs2/+sH8unxrNcrcG5A34suwS+BlQ7N4refC+qKjnAkIvQmPjZPn98Bdm1UccidYTgpObOHYq+XXzHh5UymeT0W9fqA72GZQ94uFDUCHx/AkVivYql2eGR05e4+80wmUfCKu8Ww8YIG6JumHFRDhCuHlHAmRc9V9F/wgQ2FrY88X1LHo/zHgmNSYu1KfLRyd79UmV/ri1HjJa/ViR/Qn8GkLNhKhonfES7X1GQn0GHDs59JxRMeGqwXQMK8BET1w1rb3Ou8TEaYyxAJQPBYEPnF2pGiCqunf4zlcdpxHye5gui8+jPBOvrBUNFlA9CGj2dV94GauCQvy3XABz6i7TO602VOkWHQ2lp9oOStKmL6d9jh4Q7uo57n8ndscmDX8yKG+5XdKEXSfUc8UWAEBSEmRr8j4fdmKb0IEG1X1zKaHPwh9fcvoyOO7QEnp02dixgfsBPVp7nID+gO+0/F4ldLmqqkO4x8sGE36/ZXvUC3GsECtuxKILv/3QGb9UQOkWGTA1Xjz0lmnuDRGrVVg34Aa5g/QlzTvJEjKAaR8oC2AfDiwQ6Ud2zxqSUlCWrFimFJ54cLo4Q8Lz7c/u31Dai6Iq4PxEkyXC1Qn0xcIPBzTpXAOGp+LikknEbA5vc+1xnIb9AFUCj9e6FWPZ696KZCU0bJAEsZQwJSdu5Xajjdbg2TWQo7bsZnxZTaWPrE9bPqinzbspTPDjAWSnQ5ep+11x6AzOcTssZ7eF329wy+oNll2ny2bT5DLEuj5zQWIMiaARFpNj4NrcERf6G9Yns5yKtD28t6ms7gDvo45y53ZhhQMQPQFzW6Ii59XbNrEHeRI95nrsAOnU34PV6h8mJ78I0AVBx242qIw5d5lUmWAPwSbNkZvvaSluvaQOJruQXyhO69mou9LwH/Tf/JbZIX0ZG3JDmrjO/jS2a9VIeKQxTq94iX6HYdiD4KijUAjmForTOWeT9EYcOKzXV7AeN+WRcZv5kji4FwfKoWdIJd2lwv8QFbclGd7aD/b48VyrcfpJeDfdwVPiXPBGhyl7TSLC0TCnXEkNkPATiXuHitGS4i2E35OBXy62+kqm1jTEcMRAlAw+RLjvtH7mnZW3vI0rvT8Nx257OfY2O1wB8MPsVVzzpATN4zQ3DNMcxs6sYnSBHA70ZpHn4P53CKGcc0yskzQpwPNID5op2uu0LgviD6clb9DiGOqKhHcrOKO9wneRefjFAkAkslYfGW8+AH59hoVB/v5t82d0QFLNzIVGkMVnQlB4rXWeru/knajH1oS5p/+8gihF0/2zaZi37mPUDym08TNaZTdm8QY9ul0vB5ZTT3kTGs6bPyRoNK0TUqzrT022EA+TJ+xsV21PXhJR+lW354zi0LnymCJdHZeuhZDYY9wViemZJAo7xnhT+egF28Y6G3W3TcBDDxjCC4lAxFG7nrZ5LxNUdJvqh0pLB+VJFekwwY5Xm+xAKp9HMZo+24TU+949C6G8gkTHXhvX1AiQSBGaaICZk4iNQGE1C7unsU/PkHUexTi7ITfwYI2zoJt3ND3Qlkj0qC2qy5CR3CRkGkJ8q7dpvidiovY//+74NaJQe/eEQZJOOwJmu8Lm/OunArhRSMk1T3aoqrZrs/n9+HF6TdDSL9lYepTaJ0ON4IWwNCTdA+Scx7wXC5Xk7gJqr7BQFlsCNjUD+YnvGbYVL2+FyHuhCGeZRT8agYTPpRxc1cfbovLLgeiVQ0jWEe8YwtIWytTK8W7YgJtoX2n++nIckmf9OM9xoMbkwfZM/oksd9dkLiBgSTGFaWNvR/B7jfa+KAAV4ItHSHdRq0fXZZ3ufGBxRHboFpp8vVcwEgc3WSZkVECIzaubIr/zZ5fnZ8Fttamn17GPwSLlbxfIrWRy1Sg1XP8oG/+5fIVDdODjoOl7H6pQd+bzayB0kEIyXdh5CF+veSdog4o1xjgEUjjS/2/Qk3xrSrN0FKr9RuXLv+0TLeyhgIxKZ/jlpaqnEEifcBBX9ZnBhOTse3njLHI8IiWOp3wpKXlEy1uBAVt0lCL1X8Lft7FuBJO2LPiEzCT+F87nT3Proxu0U4CNpEPCLJcZM9iBYaVmrX1Gbp5+Rfm35PZ5hz0bWnUaAJZ1FjtoZMF9IzwSsd/1YAEdB0z3GLoHxrc4uruM1qOdXZ3XEzJHKnDPLJDBYBoDt0UMWTw8OAfCbyfPHHG11pm3MwpuPG3Qg+ijLkY34rMIv0x8ZivF+W5SLvxAZOWSUM0xcL0i/7R2fUr+TX97Rk7EzeyuaP/storcN2Y+Rrs9fRAiURC59f3nyK15+fyYJYPPH9J7pMcP9gMSVl3r7Hpf6J5LUnI8WYVodwrektr8ietj09bNiYedSnJQk9xIRtQ+siA9Wz1cws9B9kE73BakS7/SpBlvgeGQ8VjzXn7AGr5bUsD+lMqkBIPOsclf/dUzj16AP67+wcCFpbutmg7+GxtK/SuLofU9PWN+AhKVI76jnAiQW42UiC6dJoUDvkoByN8cQKrxt3bj4pGIiPi9bEi7hquuK27Dv7C+M2wR0exjf3DiX2TyxNxaDlFb4no4C3/e/L8YuMfnJbo22mWq/WUUBudP1gar1Le/79bGaDYQd3srnunk9wSZ4pcaP0UsgbFSmWY0mmmOgL8gc93kp+W+2Lh00VIVdlcP5U9KAlVrikYLzSgXJPMzHz49ikYKfH0aghhXt+36l1rImSD52zzJv3uSRvFnyTA50NG2agXj26Tuggocxb+LZ+2KLwzWbAbtwJCxaoIW6Un3qJQIsnAxwsb7D1tv/yGo+sfHRNw0zHTR4IaIMlWuFHgEUVltHWwkta0FHhJ9NAZMBXwkrM8er2WGQnaWCjWF5szRHHbHcsJ4RACgcC4xfYAiKd5CaXyQWaHun3pYyQiiLBX2MkW65vLUW+okJjfu5WybZmwE2/8h08oRLwLkH4lQ5hP0oaXmGmBS3MrwtSLq3qhXDwH/gJXej3XSooRKmtQQrwe5yV3kdM4OupEdco48AwHoHYkt1fENZ+3KS30KdIqxnEwUc4GUDe32xkMpkpQisx/eEOM843qLkuvrxRaipoz5abBHv7k86k4s5uqTntTozGNxKdKlWe371dwWsweE6Ra/PiXL1cOtRr7rQmK0tEPqUOwFXNuTGP0tXHwSfha0AMx4Zi61iEhvmo1O8+P5q/eYxgCT8WxX4zAMcgp4KOdDycku9oa8bFPsvWsZ6JgHA2kBIL1764eytZnTTswfix4Yg1zWufnAKojo7Mek07WiWv1Nap6wMSt+0qkl45+5Fn5LbPuN7VuG29/t2tmcwMFw7aG2lOsxiGdBH3D4XmbcIu0+SO1kZqCGTYCs7HwDL2mDMfVCx38eqy5bVkVv1vAOnlR75jmg2p1Z1KuPdCbsm3JCR8eyCjXP75z7DN3bZP0p13aHc0KCjJh0hPxgHlg3VM4VKevub3YWQOBmeygdnEElSw9gXNiKHx8eeqQrOYFclU4pl8whrIK48Fp+fFVsFuFk8DedqpM6ECL09oBovO0ZOeuaCzzGD2AQrMl84cBkE94pTawjg0iHPDkEPHaF1dDqHlR9gBJqB/+/Cy4SzEDkz5q4z+zkxzHFv0VvpvFkPCMtDXJDhQBvdlLg8a5MqPhQim8t+E3ABgz+P3b1m/4zGsZQrfXif6osgXeWa/QMnfubNNn19Rayr+yqYpw2TXKA10lny5WhXebYCKLxV0sj2oN7sdP3RHbrCus5XtARy6fVLmWztpgzoAIZR7MpxwcYMlyq0rxYtYMmZ+Vp1FnUrE/lHwz3cHFwXbK2SSqF5fxCCf7Yj0hFyLg8Up0I8gmnb6NmDuLI8026jaV4re1hQkALimbo2Qk4n6xaYoFNrtc13Z6CGJ8LBv2B8OBRrOKv8xTAEtZTWvQTSj8Cjt1QgiUN0DV3pmAAZWs+6ZOqyHnZiEDwJFwEybYLJk7MyBWpxmDF8rfFHUiUJTj6l1ETSyhH9hTQFOjTTw4OwFSf5uQjj7CfFQsHTsvorZuOl9yC2DuZAOJfkMuSh8NCwurEzqUE4azwDChkY/KO6YrfdJbuciI/6vg952URcmkTat8hKPVwGVC71k1sA5CqKq7RaxZ0am62fTPNiZ9EYtjGhQfITWmGVl3aDzgkbEW2HJzfkX4eeEzMLT+GGnu9+33snLAXcCBMZHCJ1cZSMnyFSt5kEYfhMXtD2IfkeD0MD8Jq4LM+VfWntMDag67pWmu9ofzdP0Rh2fE5UE/axK8cdZTbbxoI/HhlES517OU8Z/xhvg31r2pD8fN+e9/IjV5Dvq8nUEvm7nKtW8GTUMLrHL8MgOLNSLrYmaQNxNCQusNOgeLX3oGE4kEe6dukbeX5khT2cBpNY9egnlMdyuBn1nl/sxQNFvgELh8f3Rxo9Qy2qp/l/itD+CTaCZnZOy/eX8Lu8HBnCDGNTywzBpAMDQGVdRCUQ+l3coC24t4osxFzegFp1K3/5WP3qp41q6FPxkAKJH2L4UDpiTe7W3yr5dZfdRP5/PAOZtoUWG3JrHgu6SlY4ULoancePABjNxd/fUgR+gBnzS9NlnPqAdTEyyVRwQhS/KkihP2dzeO5g4FHgIBC4bpi5MPp/dQ1+i2bRNqZJjienqr2O7eiRTBV8Ok11xUNpZy0WxoSgIhXbPZLvggmMJrHgtffkUUPUIPez+RpvuXuyNJy8XZzD9c/iQN7/16MfEwbZ7+t43/6d7YrO2ujpPO+3QF84hSI73ZKBdvSVK2JKnmt7r5Hm17dnd9RT44i5Is/4FmUYc4EEzIx/6C96aHAFAgeL8DftVVShhI8ATvzGuJM5qCRb2x0/4w+7Ulb5fW+ptbIQRnYbmMtNfDsovAMP9H+3W9SE9jc2vwibJbSbVkBFMYbWBj5mFsmGPwHkKpoX2hQ7U5+9FUdzNyKhu8yNjclhjGK6AM7dF75YPjH1n140AFxsa2rkNowxCIRRel+WQMEhdAVJCo/MNACMTPJ4S8cu3OdGBgEeYA3wpvvOdRofMDp1bN4xwR8ZJqm+wuJ2We0fhfjKtsdx8elFSJUyRYhnYOjp96o/vHocVE8LtRl2XgZgqO4EzP+YFgnvwN//aiJGp++DP/Aa5Jxi+42jMJz/7sR/r/HeIx3xOPrihU/ypEEPFgaJD5lXCVe8P/2+jcKow1fXH6981BCaZOIjx+Tsffvst/rSOx11J4AesDcQTt8F+NYIr0tKkQwihx9F6y/4DzCb7pFmn7qKV6589s+znTS8PbY+2hDHDnZtwxLf1XeWcJY/VY38KaW9d4XO7LjrByQCfVpT/w9fwt8U7Cp/ROfk1QKN9JVLLYrpvyGFLqeHftA3al+9CwEPFLjqzx3LecDK+XdbvgW/TJ/P7pkN3+8aEEOPubOKB6IQ71N5XHwJPWsuVIsyQNlAYzGtu7WdnB12U7iXHusjIDruJsT2ZuQwdUaIZnh+klHO+Dk0qCHuNOu7b5S/mf4/g+JGLoAlzdHgZufDg+2jO+0YsNCbR4rPlJ0aibHZ9sYoW8WMcSzuf2ArayBcsDbcpJ5l61pweYFhqE+dP/TPV4v4zBPBiX4LB0O5TM4eG/kPFdgCqaTgAo1E72cmQA9gPumSdAF18NvZg6i25YHFXcFlELUDrAEB54CdJNgFoAAAAAAAAANmY5L2uX1KxGG2sT4Ngju0j+5+88fwIBT4Du9eyLddvUGBjVAlInGtfmz7iXkklcNr4liwo248K3Xmvp4/cbQeHw5ryNcDU1cdoF6fsHuY+5K3D09QSaUVkrBpZgHUHSjPuzS1OVvuRmg+fSGxuA3xSH1CsmiNSmnQS7xF/L47XxeXKxduNlyEv7X6+jVOx6OWiBQYI9AB+vMJoEyZeWJ3Bbkkb4/SICajHWd9Iy/NLlh0WNp8T3fyN/fRAt1BR7uxb9iAdcvYykHW37mkIrUI8K+lKPXok7FtLXvS0xr0sl31U/R29+zSEhYts6WGLvyDp8U+8CVNxjyxv53fGT+dmPVYYAVnckUVQPSAftcR5+Wv2D96GooogDj1Ntx//S1ZdAB0yEZyCdZN1Plp5G1EHB9oELhgVMHw0r2YS44lM+uQwqHX/70vAo93krN4TZre9MhhrCU3QbwdUB0mutxnv4ngS/k7mBwpgVsqza9Z8cO18o0v92Vqz6SPb2pte+6xm2WGj4AaZ7Mev4Ngkos5U4OG8an9L4fDQRmVMrobWZCoCSu1YLgpXymNhhJ/7C4/6H+/j/FWbe2V6CU1Jx4Hip3Ybum6Vzp5hm3iaMfMefKjTzDnBs9j3utZf6sNhh+wfCIIngt/UTNix7ohnMx4I4gaYW14FJxti4Y2jdietgeJuFjlirtfP/vCpcGR/1Qb7PIK3oJ6zhlc6MtygAAAAAAAAAAA=;" vertex="1" parent="1">
                    <mxGeometry width="457" height="280" as="geometry"/>
                </mxCell>
                <mxCell id="22" value="" style="shape=image;imageAspect=0;aspect=fixed;verticalLabelPosition=bottom;verticalAlign=top;image=data:image/webp,UklGRqpwAABXRUJQVlA4IJ5wAABwTgGdASrJARgBPjEWiUMiISETmUbkIAMEptguPOApn2ZuqtkX1N+5/vvo+ch9qXvf7r/i/eL/l9i/xP+58uroz/0f5v8zPmf/uv/T/pPdn/U/8r/8PcP/rf9z8+L1nf3z/ueo3+uf7D9y/eC/5n7me73/GeoV/Z/+T///bA/+Hsx/4H/wf//3Mf2+///tK/+v95/h9/t3/Z/eX2uP//7AH//9tLURfNP4r/R/lJ5w/k/0r+U/vn7b/4H5lP2DKP2eajvzH8P/pP8T+5H+P/eP7rf1v+//0fkv8sv8b/LfvF/i/kR/K/6B/j/77+5P98/dz7M/yf2l8Rfg/+J/6v9J7Cntb9d/1X+E/z//S/v37t/Rf9r/x/9L62/ZL/e/bv9gf6uf6v82f8J///s3/vf87zL/uP/L/7P+9/bv/R/Yd/Nv7J/x/75/lP+l/lf//9wn+N/5/9h/uf3K+AP1F/3f9D/sP/j/r/sS/mH9h/2n+F/0X/c/xX///8v32ezr9zv/t7sP7Enm//hPvGf81DHksCc6NAZCvNX0/FROPMxJfXZz1Lx4a1msh7A6v8KpZGLzu1LbOT+G7bFm9pENnHL1d1jaGvvoUXJ+n3eTLJFeiagGphIegJUFUVIBGBxylWGvfEukAZ5AZLCPVT4Y4BpvcVslQh7ew/Gj1IHbqtkRtBnoD6surdQrRmcgxFlgJ+SGlrdScE7X1xUN8k20XwlnPkSse5hKX3wVgmDvS/z2xBVUn7ChMzc9j5niW71cVoZqZMwTT6IaZKNGdJEa8/j1sEQkSYb9XSLzF5RhZSb+Ad/TMK+WNFsGHRf0JV4XAqL9qbNinYue2xoU2Z2wd/2J+gAsXb+JdmYAt1eI9L2fq+o3jxPQKlX2JSC3UvTH8R60dVa8e7Gfz2y/vabxMLaazqW8DEEXmw3BKZM1W+z8Nd+Hj6pdusStk5c4/QVcVHxpHtiVHKGmaoY0lMIfA/DpvZrAq4uCNZktwQ54hDIfPEZj6W7DYwn8YTagJzhSN70lHjaPWgVELgpgfF3Cy9O7gqd7IHOsl4IchmrPL5Ja2f+QxKgMF3KBkbKo9SbUlEYFSHjQbXqekYguKIIBj+3QHQ8+8WFVPimC1U9NxOXYRYyPzKTWGN7RwHJBdGB3RmF1RCofSI9DstfuuCkpMXCTlUzs39tnZLoP2ep4eYYQpiI58src5G3HXUr3ek2AWg/vwx3BFXRGI9AMAkHbN4DAogSZiOEpAqcCgXOfvYpYAjNbh/M+6jEj6Y4xQM1eWq1fX5DNmeUk1p0OHEyt6cfyFO+8VI04fzszPXOFEOWEHkMs8LyV/l56X2mQUqELM/2SwBl8NVjY6HwF0gP0QsD7ibj3ju+8NSOKXy0+UqWcjT5jkS3llzyxxBfqVvthP538h0UbzE+UR0ivLGb8o57h3zKs16ZU75D7HTgTLiD3SkuFu9agNOCuyxplZD27tU1cOHDcLjlbWcFTiQM+W28ereCaW95aGg/DDZk6fC3FiFGP+qtpL0BSOyo6u368lVLsy1rzRqLaKxC5LwXymYJwi8ZNg0HxQbGImBidvxcm6kQhCbjWluu9vTM61gQwY7DPxM8JxKYAHfZ5tZ1u4WBGqGZopY3Fu6ycBJ7IhxRc3aYbu7dJoccPfZX160FdZY6jNemJKCkV877wzvwYdikb8rn5a6TlQQ1U94TXzftyu9QvIUlXdkrS8UCrPkKIH9CgnJkcUPZYDN9mCBxmOPrjhBcpIgLkqtuM1NjMSDE1MQ+W1cwplzysaUCwZfdNv8H/aNdUKZbHyHxMM64NQSGkf/nuJ7IsAG8KHSWfLJhkb26U4Zlt3a19eU925lfCLRymn5z0j3/1Jbqi4jW17cJruAIp7iNJb7h5VbmpMymssOzDhUbuoPXRFUCKv2ES29GUBXFio+JzBiyqTrnEXBeZfrWhvJRbb1LtJ7knou4xpgYlqKaPamGdEZz3zew+kr7kE5xHm/ieku159yxSgFxqKH5kj+eT1k7ugqCSlEv1Ou0xW8BDTyTmth3ULpzcUg8td5PttvIyyQBSrtMVP6myjlisJQb8J+8JqBeF4LEmnSqL4kzlPWKTXtDyS9sR83QciwfXuT18sgFj7BoumTN0KM/rYOntxODZzsupD67zT4R2PM8YnSMchIOKxtdlcYCN4vwTC88HST3eoZeCsv5j4pUQP1/quT6eTkFTVMHuaJiiLGf4amFZKKc1WqSz7/v6zaigqnS1ILhOBQTY2y2ED0ofzF6hDdxIOhGz/DwwATq1gQggtD3y0PXSNOVTH3Tke1cQkoeM4atO3MN5hYeM5owTG07Qp2OIrVrIc2g8ARSlrPJkrHFAaXu606oihUdOUL6+rCX2iOR1Tjxp6S5Rtp7u1EyOJV6LRgnSEQvGENW9JfEAuVFjYw+Lo4ujP4jg5lGDNjr2EMS2JEzxvGJOHn9Oe1vkgr/T+v5wulFJaiQhJxWaaW22Rx22tA/rrnNJlnsXWlngKr+U9mpMhD6LUCh7kDmNes3Kz9+77aGR1Gw81MI6r0jxalVmZxCjsloWnYl7D54oFZr+23beTg7nKGaTruB9nqh/q44TrKopjvkunl3UjBnsJfV5qt/EooVrNfADXdoaDkFkKyzpcC6JXq2jsAp1srVk9/lihQ/Q82URrRM5TlskCQR4Wp2kTu+gySXhj3tQZ5KYRfvqb7p9Zpw6EStxcAFGzUVQWbvAsPC5VTwS056OYVPzHurf/NR+F3r9JTl7qKI+cfGBIvHyBcZSnSQan8BcHEBHRSQFRYDogu5iCQxxQPErfEM1nn/mrL4kTqFayxpOIqzTiUJukXLU3/L/axNQqc212Pc02xZD3zgqUIFccyqfMFGTZSZgErWg0yVxtwm59WopoB5ohQuOtHV4oe6WEwzzRYDPNgDqZd4nDA1+TZ5Cw6B6YnLzYzTsFPU9UIHGSrvu2AwJUHnEN+sRm9xz6EdQs12mg/6niPhfkHgdUOCmcB24KuNR3WmOZahiwBLc75nJqkjazDQ2B22/itkKRaoIcGtBLJ5XS7i33XHqTGgPTxupX893uUm6XBUI6b5HnAYlq991K/3Hu9VBR8yTb96mP8NhnY+CxgoWy19vKU4Dj08YRAK1m2OJDgKrZoj75UlQcyYSXv9arlwObneG2zbffS4GLm3bRUZH+8oPwFefHvYe06zfGAZzlCDwYMG+WnEZUbzozakLIkWvWsfHUcunv8fLT+/SpLTaRRJk0XFNCH90gJUe3+b0pEz8TMo86ySR4Zp6MuuGsXjmlogQglekLwD9ZuDH5i7E9W6LhXHTabgZ/oga4LMQxGsa4ywBtnZtS5iN2XEz8eJnIsk5z9a6RG/aMv778V+UuN5fdDVGZUzIr+qF725dPzoSz2XyMPxWh1SnDe8JEzBPufDcm8Yk8ILiX6y1vOmOV4tK3PgMPgwaZrS7OOfmt50gE+OSND1epgcvqReM1yfjknq6ZM15YnsMwBbnb/TK74AZ/HkLewPGF4PYCHUvoI9EuLqCkGydbnCd4U+rDC/UpufE//vDJLjGAgTCMtXjXTmVvqHGAAD+6lvijrhsQhvLq0D5WhZEBPtgPHd9I9AGW5DVCY5bQj4kdwUScNx/0qhb7e+gg3kdYzhr6MK1U2inwUZ2EbgcBcTQqPZlpdtk/2D+WjlfSh3p/+7YCmZUTJmMrZbOajVj5eotIOTAutNpN8k0g5z6RIuduLiEyNI1lClvu+oJEgNzR6Glg0NY4MwVlWxqyAAWORF1riQrrU7BVnf+AKFm+tEC+LWZOEDVNw3D3zqQDGQ2k7QeBtjb7ymz98giiKEgjfdL9X1yp+Ex4qe1bR4DckX5MxqkYvkVvt+n4RkhGOn5v33zPdMbkNifsOk9m5VgiYpNTT1QRHgeV/HC6vKcu9I8Q2ppvxIx+FvLwXWVO4BcP65og+ePlTA/z7FLHlCihX8o8gCdEJflcsaqzpBXKWPH3DhS86kXECyGh2EVV7G+Xj6l0U9OJmGcywK3NLq55n6Edxp6bkU33vZRbkY2dIZy6onrJmhaiESXPzKZ0HfCj0K9vc0RC9M3NtJOt3gtqDhddehWvcwf7QQb+EGcBdU/aMyQLHPQIgEMqvv8AIXoZ+8wXNsynQRDhaMu99HXbZ1G0X6aCKa4e1dMOQzbkWt4lW2y5Th7OFcPBALtRrTUZ9OxwefO0jU4Nf6Io8+SFMcEK45oBe1QAMUVfxpwoIXe73G6S1OieIndeJ/9wqErzoUuy7uSCgUeD7yWnNi41Bg0dCVAgd8tgBciPxT8xBjOZJ3W+nnVYmhmg4S6fPMwxeQfpZI6PFuAdeGrUc5xN0FjozpMvZ0Cr0r7EgI7GmZPLz47fTyI7M/MV9HSZOhmjoqbLgrFRLI4gO0/eIoopZJ7JhTkV9Xp6m1jgmEZhxM3YSarG3ufXCXQ6lDQCrMXXres/qycBDAsPvrhF5b6/2NBqtklPXPylRz91fwdef/3h71W/Zerv1udxC8eOD+PAiQQnA4iCyEehrjLYnyyt8zq8fG6OepW2R46XrRxoUXaHRUUBbxVLmLu4cngggUOK8eX97D69k01hyR6bydnV0YLNMACqiAeYNBMJHL/KrQL096AF6SXBDlS4NafSi+kbx1fngzXhgdl7eIV4BPvanuhH2seWE+SI8uNPjDfR/8PkC4OiVcLoN1+nrWVrLBcoJ5yvMOLd4ABhdRPyn6Eu9YrUGMyjSuawt+cML/0WFsUJhE5k6sGdXh8V2SETeSjetPNxfM3Lmtf9VW8+S5kIVCkLBzdgt8NFFU5mt5gQqXy2lfow7mUiAp+LOCJQ3ky5TdvGX+l9hzwkSOb5FVoVByHMSxCSt/aHPp9cdSKY2bDP3Z/z9qWbLB5XgQKUZcB+3avmZB2t4SAY7oseZZo5yEuEw7GDSECmVxCzMaekHynkuXYGvd4G9GlZ5OEsNr6NYsJV1Gm6iK0a3wRofXLWVrDDxHpUBAwHr40D+7+MePh0nbDwMBUKKZQAOahtcqP5Yh2a9ssIM4eXLdEacGSJPFgLYdXMFYeVbnUb0xQSgYVJo2WNewgPZXvBy+Wm64fRoXzlj6NZiERfZwvMIVBggy0GyojQy2qaEyCgouDyorHiPH1A7fv+ZNOEV0xl8Fag2wnlUHrbAW2nd4qInvnOXEGkQl4RCEyg1M+RBq5CMN3NkQLU1prVtEEbwk5ac7vmjVAGRfPpsWrkvei9RC4TRQUTCV13OUPoj0AZg4R4AuZwp5w1yUI56+Ep+fYUgbU14T+NH30ktwyA4w9/8lpD14Jkr66lw4DRtAf+r6WmLK9Y3QCQafuU4kWDseUSfV98hdTKcnl10ToTAHFLEzTVPz8QSQ/yg+UkYMd1PecfAI+wauwNwux747r+Z/9na5T4BVjHpQDV9sBR3/NI/QVyerOLyvMxJMP7vYjIZCP+02Pra8kTpWdfzuSAqaNqklq7c1yrFcioBb3PyAF4jDD6AdxscX6knenBJ4Rq5NuV6zC0ngeYAdUNmS1Amsl9U8qkxJNWHB06mwXory4sACsMjdQn6RtHY9WqRUQSK9mhNctz3YF9/kGbn3+xOeKSM7X4f14NPNU8mpLihWvIwu1rc6KniVEHyPVxaMpHBKueDf1mq/0aktaybALXGe9A6zcwaa3j+5MNd2M6mp7UN5BH8ydDqwDafdp0AVQJb+jVahB2DdRv3pUZ6rAt9tbdV8+FzIMn4MwmAkqI/OSFuQJdchK05lC3YltVLbVf3hkU7Fz+xee+MiHn9/DVFRgXBZN7HSFJQBQ8biBdfjmyRl+Rt+uAtgXQRHoqn3I7En+dhWsEYVg+PB8qIZfxU0LYpoulC8KtNPgvEMuuAnIbkSAYNS4uMOZ1lqiJmKrmKCmjCkllbYoYXv8p/Zl8dpJzNWi3/o+KZ69XpyYU5rV8DyhVczMHuKJQjTCQrS1Kom7roNFMnFZQ/hJwlZESv9d7wO3sgvuEr5xhEpn01QewZslRLfY7qzSaq43s/KAn9ciAuDLQFe1kKdR+UqMKAa51OGERPTOMBEiZ12g6bkttxLMXHGYcr4f28rL28qvfkoLQjEVkgKKi5iYSTtWBINhpQrcEL4c2Mo0ritQZKodcvbVvoWsH2kk3HFwg6D/UeIs0fRon1dP0J6NEkzLkUtz9FoxYZbC1dZTWvBoH1Ewn6NYRmCShBasZqnjW/JVSZYrFPvT6ty6VJdInNrqfCuT6vAn0JgSsB9S6saMIlLZXs2FkMqvf1XZVFD9iq6qgmF1q4/jNn7ezmnuk40VXfnK/hTEOixEKRjZw1Q7ZBnYWkMtlN6af+MWV0/9K4J0cKwr+hGGe7lBr+X6J5TIyUwQggKNV3t1dmo99sG2oVy/DzrfnYMocSj+rdMu2zm//7E+ZLpI6S8t03NpaocQsofDuqOY0nfIp1FfWwi4RvPY+vX9/mHyMSN9d/HaAwzc2PW8uBRNwohFzvgpoPxEbFmgQuMx9vx2BdiDkLEApiQq2MNo9gH/r3f+GRqAqR4t0Gh1GVegb+d1n63+ty/SUH61j9bkmunjiioveITQ+4KcDu6iaUOi5rU4C7fAUiWO5P4mbeIIwb+5C905SkH/8Nr5qFUtwufoqyUrGgFLaRP/2sgSamZDcHpFmML/H61nHCGFhc6KrrF+N99iQ7Itu5DYWVjrzVFttaGAJMKbH1kTwBKSvvcxjqrcDOV0/87soal8KSuGHog3j5f+gqYE376CmgbQxN+2/Ualw+astAEnSuGLispk0otCtgsMkOU1Lgshs+8naxkME7Vv4pqQv6rJpsRS0XVTRVDxlBcn6TklmRbqqOTquU+RxcBdJpqfpHSVPEcYHbjr3Epwse5pNdZCMvI61IKZRIfifSN+wx4ewKkUIEiQT30ExrqWPGay3GOLYoVbiCtqAgiV2hsGxE5oS8fLVfdawQuqzc70Ztx89kMMYwYoeONhJfNsIKeVGCcbNKpMu2V/AdPE/fafHp3lb/KhIJphQnG8uPfdpd3NJLJweaC4x1FYctgo64A4FTIS9j55uzgnLQXMYIljkF/9wbeaNpcwFtIt5pqvB5rcfFjpggFJ5Ci1hKMoyVDrzUrmjpzSrEvQqnOGcQpCSQ+KdyYdMUqU6hao6+y7JP9SK+nesv/JHZuCuekBduk/UxKN3sPLY5iQBDXSZQo8lQbHoMNF7E6lwjYTdmSTzs0W8Ysz61++3DDPiT7NOvGAVSw0FTsKZoKuddEgmxenL21uIoBcrtJicjwT0LXQF6SRtfhZbsCv/j83siW+QtPP6ySuHe9MceB39dZds6Jv2a/J3A45d6qngU2INMakqs8UZuYxyNxXM1pL2AXgq+jYMkJadNt6B/9bD2BN7YFXJbq/3NWhvNm4xp8Fb0pcIWfaTPOdWQhRG9WTiyejHhJAxkD/SoYcgNmy9zSBysVB666GcczKs2xgJdnzDO9EfwZgZLp2vfmc2LntmFBAZJxJNFltXyZJ0woAJhbLt5VEQ+0TYMu3MbDouN/U6e1oqR/8o1Vb255zd+MBxtvkVHQIa6UdFrbDXfLLfIaxiI95KSAFw4farcWxtHvgt1TZVXtvgUzrmVgYNC8P7TzDZ0jAAzLKi/cytSUCPXFEIQy6yY7hpKGtv6ikwcD8FjYChFUmqXXslpBJ8CknM44EBRIPVb5lJ8QU4YHcQR3m7Pd6dsS/mdknfVifnpQDd/uTMqs2Q4QPOrzMXcRpNS6y5j8sOIHHkhil4XR5nl+Ba++GRYj8mwSxorSOO6bXcqICKJv4y9zSdFIPixzksXXnIrnSL4piAM9nvBqpYlsWGnvn0jLe7L2JV2XA6+fH4I1drb/zZogF+wrBu74fD6YhN0bHCVfU09v7VCszv3fJ1gCjQ4VacJGMVWcOqSapNIGqoXzX1NGYhQp1UHE9U6EAiOto7UBoUc4ceWU4EYSJBIJ459bt2L1YqdYOctkS4BVKzMj92BJn7gLKEh+iTrYM+FicTdg9IT4gklJBAis/F+Cal9UmzGajK6LPT9PlJQwDDypVRAS44aMGdWUmrZmVhjoTK95smEnGqIX6C2cWe2cmyntqx+kLU+6FTdEjy55xyP3S7UdxeLSJli6PWXw8dQyAI75bKOCcSwvK9rrVJ+U+FE4uzitKW4lrhkT+ZrG9IH3NcgJTAfL+7rvKpN/T18dokPXsrGa1Xt89U8d657sOtdKgpVyqf8fmLw+lTrX+rYmiQ2xa2kJatfaob2Q3dUGKjpsi1SliIr0NduDk5cmane74fC66E/Fk4HvRi6//oZavxJ+VlPUrsxrYwUDxeeFz7/P6GnLVgcWLvEXsmxRn+ytXSMoaJHXnj4kifZYhL+yCqVd5a0cIIeOkBBxeirNa1rxhnEr3CZ16yWw2Rde/8lK+lVUkFQpxw+EDWawBkmkjlsP2NXzZNmSb8Mo4eq/vJyNIzdsD8hi9kc65WWo7gpaFSN7MwvZAIPzsp1M4MRXBjl8Smh+0D7m90nzoU9lpbIXv1ak0HLg8bs7M0/PPdTsSfzRStkzJ3WQ3xOenuRXocjvjSdwCFAvMjC7PxZeJjJaevuMYfzZG6SF1YMvOSvyenPn1BOjXb4aZtjPe1P+kgnpdnPd7dwiXSjEwlZoSqRyhQa1i0g5v69y75SIvc0X0+HENcDnFONTNLA0lvhIEZ1uCSNUsOSDsS8xWvv6h2+dV9QUNMFruhvnFYGZSUEuhYRDYQrx3IEcmMdfMnRV4qIoqs4XJzeAxxYfVg607AZmUHkJQNdg8orGjL0Z4NgYD5xVwj2F8wpq8Mqd1Z9iz6TpToxP+43rTBNr5eMf26KUpy3uPwYNOko8pzKhogwCIpLxY835/4VFKkPKqXUK5hgxyo5wkgFwZl/z6DFodUhCTRk/b5DBs7mTkhItMR0zgxGIQ36TYOkyVYQesdoQXktSH/JZ51wzI7u9tDkN/Chn1TC/xbPg9Y/co+TM1NBDVn3ewlsdqwU3/x89n+WmG1y6cQ/vcpjldT6Qn093Ai/q3Yp//4GG99BgGBflyERmIaYdU5pnXH7FwucxsdcO6efBn4ath3lUKQ1Rrr0nWWhFr4Zb/lqleqd2PyZtbOYJYBb2SoLyAcZCenFm9dlxaOonpbxQdKglVeKe/KtzuhIra1Ht+7WvmvCxiDiX3iBpC0UQxixuv5mq0TPCXTSYevM28o28NiQDCp9ybnTYdy3tVXSU0tY02E6VX4kDGkZ6echIrR60l3wZEFNYYtf2Mp8kncXleVMHoy6zfOunMUyXXZQNIclt1A0+c7RyCBDpKpghuqh7eRfFbqMMO2M918K9jtC2gvnLjm8xqyPS8liaRWzffHuPf8AbMCUbJH2baT6Dge5tliAGRZ3V+zrjYeUxjREHyA1tO5QGVYAR7IYqCWfnH6BvVnNEmHPbSYDq7QYTyFpmRVUskCDBYzibHLLC/XyOu0/ki8ZSDCbpcuZXGj5+hRVBeQFWY6IU1fl2zbUeTWrv6iTyX5tskLlwFWGrraJ8xiB19x53glIhio/vJqJw90h2cOmMYw5mp4tlxxWDe/xD9AOiJB0JHN36x49OG2C3BYbrgNgKnTY3ywcez9nLNX/PfjZreE/FKlY/wgdWp+J1Wiq5cikc7hDvG3ToixEhfGYDjoijVF9kZp6l5yIg+5geL8IYuItFkBu+x1/gjHHx8QO6ubdeAoefKjmO7NBcdJK1IqrBM9PhFYoOCq4VHuBrmJ7auVJdT6Eppuj/Np6xLhba7Nn4m/t6DLh8Bv6XW6S/yPi9A8wCjxMLx6OPZH30GbsOaVyi97Vi+MWexDWxmIdIgKTZZwLaL50EBeWrPEtPt58R+EEBD8wRjgNuBZxuDzpXxhfkVa+mHEGvM2dvia9tczSfuxouyKw5F1SZ95C3W10Ed/RChClrovO+S2ac8uLndg1sbyRHDCcb6+ffiZzUhg+BhURDwdWskpH9Fnug/ne2aAqpcNNn45kV1Qwi9OyR+CUSvl74HIYdWEMJ1Sr6/MHU9lpIGEyLuEYyGOQE2HGX1WKiNVMQAfmJh6+EpkI3bGc5pj9gVTchihK8Rdb61thv0qs47LDpB3x0cmosmHtvDavVqmg8eh+ex60mT7uSLB0+FUyjoAE4FYDWO5lz3MDDbA5tpYngsQ6nBi8tddf1Y5f+msSLIkslXzZX+0KDCSrBLha1n4vxGMaqcxPRlRMupM1yIZsvsEfHLDbaQsBemDV4RKYvAUtGhGly4phS4yhOgyikJ94SHene6dD2gsO41t15Vr7mktDhWu3UCGHvAbP3BZ6hW1XHACOWC2B7P8gXFCiyNcXcyth1wmI5WNKu6cxT5RueUpW2UAqjVWEWbUssobyKCei0UMS7OmNsBl9dj8Ezh1m8XBsT4BB6h6eOdAz0/45Lfmvb5Owl/SwXqAWi69JtROD/eKAADN0FRXbSnR2uYcNQhAVD/M8f8YqWQET+MdfAJXdyaBo/5wp7bbeBAJoe2zWopx21+/K3OriES5wVgIPOGw1vUJAtA4mG7s+lBwCHfSLCC9V2k1cFa6uSAzBXPnZxYxwUD8ZXaXAIO/b0rI4IuSh2eMo7yBd6Glb4hh3q6UgC6NW1lMictP1TgKOwJusVihYTzV2dHBxQofwpq9Qo0COrkTbfCzY1Q35U1e+HEwgG0K23eqNdvSfnMUkLT3A4h5pa4tiTyoV1df7XeV+R9S8b5C3Vmodqg52jBl/m9Lb73yRqBsYPTAYaUwMNx8fc0IhwgIawUfIpYL13+Kv6ZZJ/igKjJNb1iLcJTJaeVVtOyNwlrHFFqNHiGbcBLUUo5iE4iw0stu9kOx7gZY/wTAfU/NhLKLi6kClTPm1y4wiJFJiQnaHmMlR2TuMoy+Hs8ybPYQYNtR6P3//J5AJW0jn7VBNvyOcrp4gffRgYhlB2ijJU1vpUn+8v0D/Gp4Ml+VvO0QWfDyn8kVTbZf405jRJJq4m3RGspFk+OhlW85uZo5f+rRZAZ3VDo0n0M73kTncZKHuuprbqa/MzwQpph3Kie2LmgdmzpPCbBz0kc3/9FwhXMkCP9NQhIpoYqWgmSf8yixiCXsmX+rzMdB5VFPSpOILqlY8tFx630Xt1XU9l9a8buCEtzYzaAdD4KUuUExcjpUI8AWLOGhZnswGly444FgddmCeEyRiYVrdS0zpf/mTO5ltADAzLMRaX7lJ8dbA2h4l2Q61PngeNzZfZS4hoCvNrnchxClkgT2KiWocf8NeikQlttl9fjYOzhbsZxKfBx1mPEEpM1AHuxhrc1aQZKbWlGL/nQCH2UkudUcDEV/UAgjS0OZDZssF75Wzg47bDLCzjm8ai3Zah3SWnp2hsnTVTx4d7r0gO3q/xp07yj8B+c/Z3u4w5bMr6nQsHz/tIyTcbcRleL3qzxLoQInivZY7VCxeFBlicSsv9s8uB+mr8okQxOSQzBBds4AkQz5rj7M76WqRJib7LzhLxWfXACW6kS2w9LP/BV64U2io8NL5hzWPHG8fJKZXrjh4NWA6y+X7WYuTx6YEC5D5WUQu8tM1FKdqeE3CyWCzjQgCjEmUXI41wus4CayvMvmh9MpJwkwLPq89yctb01GV3NcwyvwSll9X+fMUqCH5hhKc9LieFz0sOnsz2wjk3K6dvIPymyTilmvG5A2f4WSrmD9Fafrtcun0lL5nT7dihv2UtE9sZWusivpTcpID0vsi0ss9aksQtGXI3LAEU9Q8Bfus7xB8WV6VVOJQzvSInzhHvAvGEdensEX6rHaeWUeqb8bDFP9icuaSz1c+/hIEzRFz2t6L/7C6bINvzmcB8QWAnRZ44wPGhyWqv9QABXHnPflzp3Rw455Uq8JsBm1g++ldEe/IdHFG01PvivxDIa3Ava89mLuIzv5VDwsrFKCej7mLG4dnx2jcdk8WFG70hZ6jGXhICdXf2Tqx44+YxZNzZikIBpkplO8alQrWqKYyfXgjnolfbm65X8pv/zML2oD0FD0UUXatyrZHtThbe6ssJvESeiM+yB3+65rltOnGDu5SXIvxsR5bqDvpcIRNzfCzr730B4zOvqGTwBvhgoBWmtJAsxEISjoF5YVSGmumaqwFResQ+TWUB9aBU3m1MQkUme+FYiOhhXjwExctORZzYyjToCTgB7J6acgOjRjU36CQuSCmj/JZX0uHQ4cwme7GYBghaK//z1qQPCqb3fZVDAuuyiivZKVqQrA+ClVzpr6MZ5Px91loa7P+v6ABOOW3UCgMYEQwhSxSPXjipPIZQsI+mInjyFzHm2QjMiPJ59CE/8di9euG+GMLu5p+d9x+39PE5yw9BYYr98MRJa4lxq5iwTJa+TaPPvIoXDmgJcDCnHzHeC6gRsAZTQHknKKsXvTvNYmZCjHOsblrHmii69oq2oN1z9yjdbKnkTDVyGsggKRS+20jQYEOVNFMDFF1Ee4kL7EZ2wBZV8uqCIwhTaQ2+s9WDdd59TXRgMZc3Nrf5ColwVBRPbEMpEv4IOfBgQUnD11wDb9ko+Ww5gxUOh3wC+NsYCJz/Jxg7fwdogH0PRth/RNL/88pevgjPtuThIlP7DQe0j61/S52EPJTLSZaJeA7sYTNjuRmU/T6+51uZvJCItUp0pmvFeZI2uBUMwIuUurBOivW/bryRu+mxnTVB5YcjOz/FsbWYzJnreuJW0Y0sWx23X9SIbsAkwT8QzGdSoq+TqAT0qoiFCY/Hcy2YwwJjKvJdVBn+KPuLWYpWMOizxRkYwVCFNvGydZyl8wKjIq0qQhRZXFBKYP7s2MGf7nMP15EUuUs/wtYvAT1JCOu96z7O5IbVRlao2kqFiSS6fW5afoZOlX85rUxl27y2WfqoKY17toe9Mx6zlw+kj7mY7ICIpDIclAFZLV45v8PhvXsmf/bmS6eN6WEUu1GWB4etfCUwKQo3rANQMJrFjH276zfmmilD4/eh3Z1LIw5kGk2jc5D58JuozDvXFm47iN6kNLjV3wS1WZU8xoMU7ZWSwT2ZwclvIgfbFwNmJYDnjEXSoh/pT2sa6VLEa1cBZrsVVSn7EI+Xhyps+306yfuTyiesWmrqt/sn4fqCzMKEySPVBCdLp/0I/nsAMQ0JtaC/mHsNB8YcW0e5r6cN20lqa0UbKnfFUkEcE1ojvNTNKGcmkOEf+UBANe7rl8Mp8bCInlR+Ls19JcJ085for6gfsW5p/+LyjWt1RhzJwWHRDGm8sXKnaTom7yG8H9gwV2O8te04mugFAa/c+/inooPF2bxQa7qE6qGJJBsiH0kmORZcIF5TtxHBwUztdNVg/4SCupLWoNRjx02ndMR6UUylbZj5yDW3dsiz/unyFHPjEFe/y7VMfQICckJ7YlX9eGGTetv9JVZLg8csAlKO0hTBVrQlQSoZVcWsgGjcdVNFIxM5JHcbRDJnbYO+Lc9GxN8eWQwyJMpogRdlOI5oWr7TjLH8zri8HkjkNFQjBZvgq5qzoqVlcz19J0p+5fkluaXTieEWt+i0zrZlQR+cxwKr9k2jSmqYxgoCSJ0q3yQPW6xUTIhFBA9uZfxpUjvxz7gpD4n79okJisFipqZgCG+r3zV4N/n86O1jvLiAmPUc8TgUaNJOZeFTH6zamixIImKsM1Yu/ntatUVzrTNS45AInuuDXWF1zq2+nHIKQM/UNv9VU9qQX27Cw/0H63V5U0VBoO7Si4NNUKqLEYMxAG8Xl/GilSxPjDp4rIA910RtqyeCJZM82en5O0hs27KK+i7gWw4gZNMDAUuzL19FnK6EfN+xLVT2uUyB8a9YTGFZmihnyaSrvnJjKOEkEI4KuPJElhgfM73f/JIJLzp3EeyP0SKpGowbQRlmrDiZNnzztqm5lleRlutNp+3VrozJhLZntxNSl+6ZOSBEpLZdqPCWeWCRkachq3VSvuqS8Wvc8kCv+UEmlZ/tg4LVBccZS5FEAaF1jn25ugMEosUcyT62iSpR91j8HAIia9XlvsLVd581EZ+GW4QmSVfg2gu4VcDtZlN0hRces6aZn3Wv3KvqG13VHLlXZGfizO46cIc9P2ZPefaumD+bf+aZ0Im1kOn/CSUtNYio+yan9nyemSqKCasYxR3Ukvb79GY9A4ZWMzaRN8n5VmdgmLAiABto/JZuhuP17iMHMzu6hQeSGPU6iaASEWAdw6v/7eh92LKODnTsJvdhetgKegfwW7Yvu48w+6shiw8b7JcqEkf7yD7r0Cd5heP9Pf/3E3uqb67vbxJXN29pamUMM0oD5nVeuyPpTrsZDLPNq6JzzJ0/MsicRKD8inZmqDlHAyME1c73povzab/e5qnUvQaRiOzd0lNk7N3vXuYzzRicQEoFhaaEbdadOHP0RRUWATDj7KOu58OMZXopfb+8rSl8+ciK08NFRPagurpEnr7R93wKMXggkhnHKCaA3LvDg52Z0c87l2U3B79yO3M+OWjD5aPelTzXZy28IoRvbpcOD5e1UKv3kRkR6cjeDgNLRc7QHTDFfEx2EXInbI5TG8itbOKLa+X4YSs7fEu1mzJP1SzJWXeLGzwgZx5OkI1geid6rrpkcoadAiQ1woKIge6K1Ua7wuBiRugGvMvL0nIIPS+8B0MnDB2SYoUKVt97fqZTcgmqIp4RDA7+EjeLWkJ4hrjrXHtEnP1NFkO3E68TjuTC+ikkBcIOw82csmZWY5GOZUyElofJIRf9stbT/mOQrig9TOjrTKXCm6moy6QaxhcOfGqgNqTZJN2qtZ1tdB4w7XZyItF/qf2f08lJQsFFXHj6JQlynkr/qZzp3n21e1IedxTtPPe6YN802xn0D/0CY67MkGiRwLyBjEAQfqroYHJE7Dr9plCLCxcIMOWI3CVjJodcVUGz9p4QvpEIYyIY0rgBKNBpgv8vBGzh6EcrDfO821E9ND5IDHeOZi7Ss5kJadN+1EqVaQr4aR4M07jrxIS2pGTbNNjGRVTlHElPhZyGH5aSAR7C5GJQ2NbAjuM2gr93E/6un2WUijI91GR9EbD2rMX7+kGEhthgxufriJbLiCdTcyru5f5cuWyk8bCd8VRZ32/Gcy1BISg0/EHpcYJXXuS8HVoHaEV86iVAbvnF3KlrOAiNTHPRMnIUESxcoyy+/Av8557axdGQQrp3bUWY1N8BfCki0P10a4tDDWZDB5r+XWEQlOLJkKQY/J/258PP5tixTaLq+ghM8zIkWe+RTo1oTXysJyuaV5bQUUiEXxDRSUkVFzn04HN0RyzXg5WaOvo0qHHYpwVzhjb54h/DWC1WHnox486eGHB4Z2fWnjsOZdcyE0NpIJnrVqZ4a29Sj4Yj9Lb2PV3R3cye7N3dOZUpfTi2QcPNT0zRUze41JnEfaldZtMN0Pg8ID7qq+vt0IcyCG6A1CSoGDgOUkXE3UoM8W5E4VdYJyKSvrk5WMWbXpU3EmrqOXbUDzn4Wqs7NNe3KBrLNtyx0tXYB3KIsPMbTK7WZV8P0cO46WxBrPwKHSiJQDGQCSeKMIzgdbpD4HgwHlGzDB3O0Ew9EdM+6Jqqa/4LssBAqhmTKJv9VZE6BZmGv+mujriAAY/z7lsRVzfainiDMgjpgIs/Nk2qkrh2j47SsQ8uCVCouphwOkQn0a/8uso1UijuT/rAx2Di/+ONfTvdNQGlKuwb7+zJW2niKiBz9yXzNwz+xGWB8Hm0tH1HzyKjgcBwMTvm1KV89gw4j49N6Cy+p3o7qFoWJCQ3ngrKbwW0USNsDtCV8LCEZP9IJ4KwQEwg1aCpFcroNAJpVm4s/dQ+w611GW8N8dLd2FlODb0M5KGzH8AWqO6jPCPOXRT8FDQnP5M1WRYuJnYOlQWCINBobVlma00/UgJrgQg+f6EBVTl0HosZ+z69GDhtOc/f39nIeJTxbGv7Pj6IN0ChxELqfbEabQ0vjWP21FKUMsF2ZmFOkKocAugyV21itiWk1hj5yYWlovCrlDfzwF7mn51DlSd6euG/umIUG6zQpFI6aQzJY797uqzyprI04LplKb7nk24hrsuvj/Owz/tWNaXeZjxVMpChUH43aZ80iS96cHhvISGS6Vs0B/w5WZd5m1tTih0Kah2rFbs/5hi+yPcYCveJ8CP49jO7J91KmmG6HNsmNMmTnxS09qf26Uc9icAbv+g2DzQp/DSIocj7cRKhHb8UKtpS3Pn0LkGV+YzQ+3zBkLfKyv/bVpXtPqTC3F4Y7xOtsd/2g7Etzc/SpZFIY5ZYM5uu2S7tvttFwghRPJK2kAxzpIM5p2dd6WSKKJjKUZSDPiIjqcGgc+Uk2SEXzxia2ahHvxIoQaSd2lCurudNOxw2QYCbUigBiOB1vcAvf/yhNqpL/ZyuvdzT2ULW0bFEabnYXeXFCUzM0XMI97Q7I95/WqfLpwTZAnTGJgcPOK9jaVfpYBTz0HOr+hAx+gSJ47ef+RHdO+hudGE5Pk5YcG7E18XVbnPtDlhcMc+MzrB1mNyOxUcIVpEipLOHszTCcFtC+XiRJtkvHgtlB2GEu1qv7I4XCcj8tRs02IDdRUgMDy5MW47alJX591QPN+Vca1PR/u+1IqAV+H+/C5sDDUAOppl8dVCsRzy903C3OhAbBkr8UDV0uJBIeOVWXbjQ2ExN3vJfIpzTtlxcOHGG0dOAMERDtrNQZa6QbRPTnHy86EqNUHM46fEw19B4siC9B3cnGM0OMwPhGdaX65xE4/cvB62BUm/vLY+yfTAXizP9aCXqKUyBAA8tontOh4j30F1HQ6ed3Uh9oRrNAGqBZAr9GP6wKOkNrKC/MuGopqh4J0v+ewzcMnoNPrZCNGzLYeKqwFkkzV+td3uf3cN485eJMmWQ776dEjeHAniIcAI0Wr9ytzvjVDeTZeQnSF1fKgpNUjt/M9PYssATHWjiNif3xc8+2cBw0KM6Sot0Ij1yhLvGBh//rkwyhcw6PGzEGKoFNObvD5bjeEe+UzpvAV5p/5fnCqAyD0CYSCVpX6qLB6zwu3Z2FmQuWwiiDWbrFHHOySF2bAAWtxrYjObETFXeReZLcWxdZ6DyWQUGjYnt//yrbA2FYK5dEKqc43PatG1oojqE31cNaH1CjLgTLza2Hu0lPNG1yYe3M3PV3jIc2cb9cT7tzbeF0RKgPO6Uz/HV1QO4me3o/+N43Do35T7HWmRSLzwbpXtVrtyUPt19FYrAurpdFTW/11imWvQqg1+NYtx4buC7fQ6SVSR0N2NiyFDzM0BaE5Y6aByJahfv+8DD7i18jVXpm23PP9iM8DRwtnPZsh/Y2oZc89yh0VsoRIfPM9WpFM+EzW8MeHg8a+/MBDujbww9oxf6DQCbcALeRGVlkw1xRDsu8AIsISChFyrEXjMwlTbMvCn0/Gpv9c3tlK5vFRqhXhiD9q+vVsJRn85bCFwX7JfJrrpJLuKc7SM/7ZU0LI5WYc/qsc4P8KQwoSqq1uLEc5UBVYWa+z0qxBmZSq+7GTGX3hCj2hBzXUoFwkAieWVDM7dMUat+hrjHulHcOZ4fcvvhyDkPrQg/kv9dBb0YHkFgTJDCYaW65QnoXsu2xUSruk/dftvgaZmeAUy/VZuP601uaAYbdDmylof4WLrhgB6mNoSF3nwhod8ViRYwMzNgATQIgzHvPjjyQbRWjee0x7pDuRhc9z2FBBRUNVUNxhVMTI58ow8nvko7N3MwGGQW4se78P0t3GAYgjWwmPAZl8NvMK7btd1Lnc9UzlnJQ+JyYxnLcKnkz215u89VTdwcovJ01PYpAVoiP34bD4LeQCfmogy92Eblu25wjaZHJvDy396F8S4hR0irTm6o7ZOH3eTUxGpR6HeOZV37IKXIzl4rQ/ItZM30ujpPAkFQLS0JUiOpaNVmy9iScbPUK8B7tHm/czbECbiqN0Nk06FzUPNq+6hl8iM5fGjIDXZmhJjOaAFZ2YdODL4VXukBaDpjyEcqynakiDzihwbaIKyJTRjHLf5/vd9A2+UTfk6dOUVe8qLlan79oJvxwX0znUofcjvqYaEJaEznJnQvo36PdMj7AZXqRnnNARkhzDU6YXtcfIpe6Iq1uRQOZ084ASHOrtezhvxyk9bzc0xzxIIk8I92KUy/w8BooB+Zwj35frwOtolxJmttNRZFFg3NRzvCartLgjZ1KYPV3lEEIFdE2q6dQHaBsCtB2LJwCikR1Nwnr2EgCCr24VZpdqdm5zHzBNF/nuCqmXEh/FdWp921SiPJ5eLkPjtYcB37Mv5Lxec2AKDLWlEwsrATz/rQKSNyyB+KLsdeDNa5xm14kLIasnz5an0BXA3XVumxlgmicsyJY0S0PSJN7DMi74NIRCu2eH/pTPMIoIKjt2ttaEpa/spMLf2Qb5uuhNP1MU4l555W2WMMd2HxKx3UXOmy2TUJOrYU9Sw54eD/CjmKQRr9PfaD3fYDmoTs7ISjJkhovlkBX9rDydzAmpvecwZCGzdgv1SMnGRR9nec2KJoxmM5rOX+m40393inPoUrEPwce7Gq0BEeKiops4LnVnBZbpVkFCUTH25yfPTYH3qeRNgDC4PSe/wHzbHQXltlA2bikVwDXzdlMXps4IXciei9zUc6Bv4YVxmEV5J2O1SOjZXhycrtj0frwRYXjXqNk23t7hFkA3E7Ubn9fyu46Dh12XclSRdE6gmizQ5n2EsswL31HG9kGkY8IAFcBFpwWRt/+6/tOrH2MgKoXuUM2GGhHQhO3CgVIdEMUcFCYOiY7+ZHRSDVhQOgqCH/NgAM1irDdHvxcZYABA1RLqqSSlmn0sR3C3ITaWZP3rRVJ3pXKTqjHsPo1RTXotnjSsMxDZrnNi2vu9U5/Uih/KJgOiTlxBQXe95m+61sDBpKtquEiZZtJDVmhEpbwAKJxQuUCmSmCSHN/i+7u5gGl3HqN9OYj46TYxyW1E9I/ExpGZQo5ETHcOBUs5AxyZ7hrI22GzU+5B4wZLlGP/gLgVdux2FW3OEjeYyVoM7wEmCy7wXo7fn7FSlWR6ktKGkqyYqWX7DDBxCS5rmzicP6ssboa2KJnRqhrL/govejr40eu0uKcvzJ8h5UCAqvJOmareAhHz3ftZxRJ7bVEsdnTum267x67d/9c8j7WG8/PTPLqYw1knyDGi9uokED8i0dV4Snt4ucSUQ35+nIh23o1LmVpV6tBCpQ43FAvRPUbaeRI5sE8SUnW4EM30E3zQsWJAF6K9jylPHVPZvLeDwZPrwKD0owC1IOm5XBYqETkxlia7BS5BcXDP88/CrsKDyom/bKAgdkS/5nKjs/UMTqkaxrQU8woG3MWRp0q2tqWMAVFX/2QaaSVhLTBgvSfXgllboCjOf93wt9tilTVk/HlIoOwabLsNjcYRiaaRS81GrVAjfAwzq6IDOHLJsXYVKBR6xoh/lQyZJT4wEyHnmVr1ikJtXsqKcEzf4a6c4SJ22Od9TADRqIjWvrKA7JXmBrkayuTHVQ4ElUuGwhBcaPTBS+t16/gBC/KVXsLs+7Wx28795iHeE2Y5Aw5ZkCRjLt9B4HnHR+wGkyAwJfvokqnUlE2VLS7YA9FjeGa5AUBYtLeQcmInCEhj7TIEkB4fYzuQSMr0IYzD2KPy4YPmotyR2vchtWfcung72jYFbtOxJnUX2dUIIO/vG3LQi/6lJ3vmpNroF1SaiTpzetigqH/e0+60YpoqvKa1D69ueG8NStoTQ/To5vE2xS0E/fz/5yVV2o1ql0K28Z5BHNz9+Yy3HsR/825W9TXcHbkDnJjs8HuZG7eyE/sT0vAJN0Phvzv3NU7eux6kphHn2qbE7mOREHEcK8L3BkIAe5Sr5f1Du+HXzXnqwI0+lHzLi+Nnjvl5KpUZIyUsqt65AzZJ2ur3ye6qixJIjgosw4EfSgQYHGScJDFpiMASZMEp88yn7bARDymJD1iB2q1JoHc5zcOVUGpxFGiAbBqwKAPjQuVZH1j5z+0awRvFaQDFGqmnAEEooMGOKD1RzPGiGY+8KYwZVDhzAOBNAb2SMPykqgXPT9c6nnJCju0Xg9AXToLhlOeCy+otHilzOtQIRmcKzYgA1pvV6A17hsAwpxyMEvkN2B3gebPXUP+BvgSIzkP1oaHhndNhEIIo3BO8tFx38uzbeaHnq3siaX6Q4ZtKQCvfU75FVfckHQjIwGfOJRnu6aLeE/06DKmztkHGjk+Z2CF3G1gMBbxTRGrWC6hUn1XlqI8i2pIDug/WcHgVdVMM5Wc17YBoYt/cSb2vkeuwySmv2QKOUddeDMPhEApTiRVtX3IsjqE1mqws+AjZqWdxuECMsMrSD/nkXk0J38BccfBsI6jHzKsZbf677IkXFSUKIVUZPFoo5uapT4TfPCMbV7b3KlUbJR1XsmtHF7O66cqNh4HmK53dyERrryGDGAMWkKR3myrDQe5Ey7MXN2RIkMgp5FGtd3RnDAFEptfeBIxVRQMGJ3aArPyoE/cKJBCuodEhCQGZwI6TgM2DkSvkYANO804X39yvF3sydG7r9hu7CjzVdH6yMw1Wgzj6xm/gJpXhafDsGTIdL3nHwvu1EzgJPnxlb5OmNotz4PPzIOdkx2IISRGNEUvuHPzhCVcCKFNasabTKQCpG0pk0rgEfNbpm1IZweeBF/MNaF0jcp2+wq8KN4CYxIrrjTR66fZaBGuNO4PdCrPxuUGcl8hWMmjDBTsSExaRrJHYmkg50j/rhfpLEoOj1i6ee6YyHWgQhql1zUFae3EKqfnvBHm6QbodUWsB+jTbs7+ZLYPwdkcwWSzNkI64pZvVCF0wtj4g6+yBVZ8DKdN8iuPnn/M8dVPvODJwZGy8kcCb4dlD+2ulDrQwX/iLL9RMn9SG3i6QVYJpkQdbcc0JfnjbRRLAHBfwETunlsBvpQXAusbDfhC9tG+XF9WwL133MsHL/YSDwPcEv5giK56JM2UVpEXY1zG4frxFrP1wfJe9wk3s5ZEX+HNlv1IIRwZ2EEf6636XR8pIAxzkjQ8xfuD3h7Cyx5ZJri8UKtW/Fj9/k0+eo0H7JLigzfYJO9eZfTe92dnsFG/y5FZkDLyUU20xW0A13j2gmPLrQ1Lx/QJ2qNOU6ROw51BhhbmExCEDueWMMbdvCOGU5KBL5/sHWAYe3P16cXMKokG77mRRDTn+ig5Dr5okN8QMPvRsmtisfX0XXT8XF0cf3idkGzhhtV+EYexC/LqnpKFS6cRL3fGAlPaBC7gY9dto9VmZt+w8escW9Qa9P1fIUXwb+COn0jwLXRzc0bN+QoyOkVri9ECsvV7m65zqqzvg2qJagy0s8x+h/09wVnjm7qC3F0QkNzMV2RZ+QIjxmhm8XuWYnie1NiYMOFKz5BGIcMDTChao9ETx7ru7muerxKK2cBhMo5EQIsSNQD4So2A4SEAJ/E5I/iSN3qEnj1xPLRa6o35GLNWtzdn2YgZrpwsjlWfg/AIDW9o1TU/yLo5UYOuc5POy64LU4dhOGlDB20jREBFdCmcDCS/zABkOVDHOnSjwVwydze8AKQmkx2E9Yii9FfsZR71p2zHy4A4COLCBmGJYJRrhv6yB5QNGSObH+Yfz5dj18Qbbxx8nW987SB6Xdl/QqpjHt077J8u3/9KE5JDPCEbTWv2J9dlRImiL53RDH/IcmkWU4/cu4g+eBIrc4adyYE/3chaBCqLZXFooW7DmTCi+JcXhzgn6bhxlNCeq/eWzhsk2drd99gl9fVeHqG6/pUWBVIHJRorJyJf8P5wMh1n42KFfG8hpY5Q1W6lhAZDS3LLzV/lBGX3WdBVZIe4yaW2RyaE5fAI0JdeM1D4hYS8CLiZqW7K6UVhcP2iG2bBYelQnBWySLc813Bbxl8fUaKdi9w++yd60BSTDweNLpGoQ/lSrLCYxY8NNbLeUyD9o2mepb6cZ6Hu0PvYJ/fs6s7Df2F8fp5pgvSdN59LUKvjET9l0YBIJ20Np88dq5w1TcbNnBI8wLxQsC5Ceusrvvb608uacNpwMmvWTrva6NqOvem27xBeRDvuI4WH82gaCvDkM06Nieucbx/pbAqX5ZvjsGZ679b/KuUm1+gbHTc5QYC1oMnrSt/yA3Kzqc+dwAVab9CP6TtJV6yfhwec262aQJ4JHC8Wqd6DpWX7OOev90aiEMoL0s6/eoz8LWho2jzpdfkzTl+whtwUUyHfQ3rqIZAlYKLy57oZAiHvOzBzFbPidtJWQXaMKdHH67oiHwOfCLkLnippcaTzPKFvuE0n1iS3uEw2TvcI0WHK0GSGopZTq2Ea6l5w9KzEiGdhTU6rAfNJyT78WANyarEofslz9I+27dNUtNkvLHa5z7FzVUbFPSwwD/aF/JfP5zJqGCEe7MJZCUNCvVNH4GZTlLt7K7oPoLhmVWbffJqtucdN5rUAESOIB6dDO4kdX4DUcUupKpTxbuLh+Iwm/A1JCIr1oycsH25x9xzae65bNZ5NZh9Yn+PFiQhPPAHcSI1S9qPVEdR1Izal24bJeyAe8+Ge+8fMx65kWZ9kUwr/ZgBKCcafY9hRlUZWiHKZYj6SVnxkOQ8N1mvorqaKeBu+1QIsJoKdE+SNb8A+1zmkD90qdyfIkDQ9F85A/UM7fBKvKDaN4t/hpseX973mfFPztbvqDCLAdra1fU5TJ2pTd20j1cyuE8baM1KkRh93gwPDhwZOrqXEBIUI8ycJAnX9dhW/Wisq9vv6WU6+v2oyUK9E8FC91gEIWd5Qnwk497lXqHUxJmfPBFQOEOqETBEJaaPZsE+K8mVHjkLPzt3Zr55BjSWYfzx7lgIwwK5Wxa7+BcTUF6Eit7Tb1xO0YOqc4Rr7Ss0w8DXxzO778e4h1mA5aBdwyjGkS6Zf4/OzJVlerk9aMwyS2elyLxbgTloXLjzzkEVnpKu3uU8wFpSd9dfGG8Jw1rlzQCGOK1qfn4+aUjAAt9eSXHCD3+dcS3qSSSuCxxyHEVcpxs+1btnIXhckHGjuME8yrB3JJCnsZrDmUwSK4oqdkZFvbsirYqYxyuBzdxGrDaEC2FvsmeAFO5kbdKeiEsUP1QlLK1DkkKPClFAlxcw1UaN1qKhEB4LwO4f67W0oe8MoIUJ2TOxClE8RnRnBsoKeimYDNUOcdr8FaznsmQam55iFs9YugWa+Kvs53TnQkHn1kr0SZX7KVXsqBZRpHnIVsV0t++0BbbrxCFO8ulVu1QY6raRlZ3dFELrtz4+YpBP27EK1UC4iiQiyf7YnQNODiqrTAZtrmt7k1n6gFfsm1eM/Tg0NHrBK7+GX3lBkV7DMLq0FRm9mfsPyWkt6SJ6WzJ5nhXd3jTrO3G48+ILDgtdHf6vE+rHWrRMiJaK/iQi+HYmZCkCps+IdDYc1ihCBojHxsmA5CDslM91wlzWxHTMLXGDMvlo0za+yDvt9Qy4Wx1VTUuaSJPLrnCkre8XJEb5Lbqe7DYTqqrCIXDRw8AN5ewwY6nlesmDNE0bgc8hGCoQ22+zc2zGC+fOmNI2udRxu6c+VY5dg886RKvDN3q5xfBzK5wIMPR8tJKfzA4MIhew/0YuHnU2wRrBkH1NrqsLBGtpnLj/NqSXrSszH91ZPPZ/Qn4nvMJ3v0qSy6mYNzPRj+nuocI0g3uIynxoWGnNzme7MEeLyH2a+XhTwgwXazc7JVYudrXT3fTtnlpGU+EZtV3tB3JHRww+aueg42XVSKcCzzA5F/EdNkkI3P8MS2rlBpWcjD0JBRpj/ZZZX2PIS2pSKFCvU4Mzmiw0wAoojii8qAxN00V6zvkKh5j5v8URNjCfrfJSrlD3Lt/KmyMtSmvqrxvbulnvnCu1PXo7fx0QV/T+iMrscPv36UdAmIaLXymeta+gFwUQ8e8Wls1NhwL5qNabmxcp4c/HsHlD2OtpfTPQY07Hkq6DTtHQA4/WMWXj8GpDIPlJ30b/i8Mf6jD03hqMJ9Chy63ydDcUmD6G8x5gNWAomJVU30KGl4aZUyycHDsBn0Xs+gOtEf+ut28XjU/P3TvWpbZa/1gp9FvK7VqnPgHY9S9vJjKfjwEURLKjTG/E55PTDjtPR/3H93ZMFtVJXnAPlSN8+cyeJV4R891ZdfuiiDti8/FXEllIIEJP4WyIGB5VTtrMIwhGB/h7iApezCsJ4IgMpOhEOA20llQUO44/eSNLnAWy4c31zK18zi8DuE4AuIBBJNCLd9h1O+iPqg7urioQ263q+t+tHUknpcSAGg09NE9SD02feQtCPwO1xLklP3Pxl+BwIzl7t8WBlcsHUFj//02GS5Dqef4GhBJ/D1sHV7bDmjYZ1GiOuYjcRClK2nrPo2SYkMY8+DaPsnojtvMA+8UaQEX5EI6vRhI0hjRjNvs97+rUtZJ8NXKggb07tklrqgoW9yabVVZF8jxsvE53dRFVcx+IyNyQHEMiZXdmgk0Dkv+RBeSaE17CH9twY7SyUNtWVVxn+JVoZ8oeBWqFtFoqC+qOZUSHWPlrwl5xedQAjBPK8EuVTyc5nSoINw5aTImwbUrF/sJ6yElIIoGygfSO6/K58N9q1RRgPZJcqEmx0BFaFMEcptwn/E+nnYs/4WiyAb6saPqkqjOvIePMFN6uxmzlSXonqdwYugyWTVLn0hoIJVP6L3RaPydw31JRkQGg6Aq92u2qXhupW2KgLoCv8r64q2Iqg57/zY3aFda0cDga8uO+eHXMJG59v9zcwGQdicxcBzqdSQYNT1VtSVm/uvTeZdkq7TufZWkoDKrHuxByxd8HmEXaTaYv/9E/qRm4Kc22UC2S8dmkmKP/Vi5tb9Tw5RkXKynIBZBCF5dIt4dbt1OpVzqUvfcxvvXAtSx+6hzVlffkP/d3YXW27tafTDq4cj7an16WiXVzDqWH5876tp6Y3PDM9EKCvHXFOVnpMKs/9Jloq68QaX+dK8ONPtYRUVnu+9Ti0DtvCBWjCiYkT6i6cG7kd9E6qaxpdiIBe4Ko2hSnaVvgvrpeXBASXzPenjdZwpoYVZ6mSJmvfmBO8ypBiKzBLTOgifT9OhsJr9y/ei+fyMWd3Zgvag3Dpp91wfEjTmCVgJV6LbuxKYdPp2Ep5YmS2GgiAu3zCerHN1y/rteE7HFnao0rTI4qHxJ6r2ll0mkJ3xepLp6ovOXO+ni2PnUHHr+0Gn6QHYXtT0zLn3nnC+E/BPa/TqxZwfdzZIsPCUuuRr0+tz4v4nAyCfrfirO3E51dMufm7fiDh0bfSKKB1OTccaHx4ghzwLHLvTllikUVu1jZV0T6Py3dop5nfjI5mPh2tMZ3omd1zji2ZFOCeY+cX7gxT68sNzsZmd5NP03KN00xrBpHxW1v59GYtnpU6HMOThJ+JxVtsrVleLugaz13HAvPxsh2C/U0XAM4g/EulvP0NTGiLe4LPThMuENoFUiJ2k3Ho+Er9p/kcC2o6hryBkeKV//k0AG5ia0QrzukwtfVrDDRGOawEzDVnCRTpGaMoHXjrBzPSGusnynHZbc5YhLtx+65a23YWpC9U+P7zxprQacLMlGXTK/5gYANQf8ClvwZDQu03J7poSsWtlB5DF7/IRr9wnZIyzlNO8a3HWf473Vo2BbgaYv+S+GVQ5RV2wInTgtOlJCMmg6xw8zbAq1Q3T7kVWhy1ydVV6Cg2nGz/e/dq46bvLDyL+uC8VDi/0yia82v9YiJNOA7494kXq1GLtjajjuUU8zIyC+HVjHSYxxbkTotN/xNW2YoKiZCfdfaYDPq1DzlS5BnL97JHrkiioNK2RXsHTZ5whkdSarWxm8OmA3pweeSI+muhWiX6Lv6rE221F3TxGBn5W1O7WgufiUAYHEUXA8MlgMuvCRJ9agvWt0EgA5IN1hWC+iNlb+Ksi5Qyq5jOEiL0D6wTkVm756lmX2o/AgVGtiilIWfkU1KywOebdcjqCNllGqGQ8kPoQjY8nGsvH9I992sZYFhsHYBe7qq3e8nehKDCKES18+DFDeF5etYg4lTNkp+g2EGHb7nqWHOuZqN2NTblBSgAlydnemswhzxOVcbxYPeS/a5QrsVg5+CfdXqkUQdN7ufpuIaaRPrdulDZB44kc/OLQes8BqmsKgmRSo1pOrouOXDvBjfl4jTDVkODg1/zvw2gc3NCjP5PDieFVarxz/f88w9MNejAwKCkGzv0aOhIxhR5Ez/NZN54XFbKFBJ0DwpvmhjXPtZURu81F6Z7VQ42o911uQPqaYCLh7OE4yGFS1OzrEdLrLkA1Ag1AvMW50JpyLtRZDNk5gFYunUNfuK3fgLxgko5k6+Ztn0rp54yD03vWJhCNvw/hDeePvQIiqIO0BQjEzgz35ihN0CNov2Z8OLcwlm0Gr1GrtKAuI0wh4kqivqO2ky9pQ/2+zc35T1JLmq99IMn4ItIj6IHfmFMKPesilVFikDS1CCxCHS2bwcHnxvONM7/WBdAei+yLez0UcDAIPIwHPJ643LDRKriT9xpfqKIKp13GOhTzu0ZASE7bp+PE7FFx6z2v3LpAfE004RGz1DviQIIjTMnJdv85dMT9teqvlSJbtS2Irfyce4JIfvCydSphc/F/MvQ7ElTNFR2wsRT6ZeeOL5/M1cHvKUvB0VHx4K/JZq9w6Dr5nTWW8nd1zED3sYWWBqhe4V/1C2xAnwjJI8lPMsbBmUvNuSHlR4jECHEH0QjEd2CSkeO34URDrW2WueIkhT0mQH0sN5Av3gSJQF/MQqloXjJN5Xk0S02IgNNVxM5DIvmYH4aEPBG0YORKJX7oWEI6HiutvG/PUi1Mp9Jf+Undf+mlrxMmG7FsuHzK+ifyQJR3xayAe322M1ZhWKdsBPLXvzGaagw0TVodYzoz73Up3kCpFtMDp0Nv/augT0SOv3kmLLUX5rzFoNznEnk+JGdN43d84rwu7xQuZa56feWxWhehobo3kJ8AQeaDQf6vIHa+6ON3+As6lRuvvLfkXrFTzgQmHetyliM+LxF/yUlljvpyQWFkkZz/PlBsUDtdss98LZ/gTtV5bz7+G8eZJh9ik2nLU6NX31Rn3cSTgoFlzRG95fD9UDNzotw4CFvM231ESYewu5ib+NQoCY499daEFWfmQ8qjc6MQ2fp/QmALyJ+XO82ogaCTOxL1RhpOQP/bApDvhJaLHpPzJmwLgOtzr/JmJ0IJ5vK9ViALt6yeqDL545yNyieoNFHv8T9ZlJVlCrFob9ch6ZUa8QWFKUvrlEwz0HDs1zLEYzY6fnMegFCM6rBsSlL2mTywkFau7lFegE1FAnXdM2Xw4MFLKCec8usQbVRkLxCUM6+5Qot3+MX0LmTJj9s+5H7TASPXh3m2f+HKreJBpub1VpqW/F5T/Oqj6JK7jue3FFUYkUNhGA9ytLhk0cG2IkLP5k8r6hPPX6n6/cpmgEEAbcZFY4dkZqwuN4qQFwE+nlvdY5/oYFOU4ntM/KxiclbeCrQZ4zTgTcSU3GnSuCPYkQjrR45ziGy/uEJrJ6DtXVQa06XSsTH3DZ6vgBxr07GZee1zpAWpMSMPCdBAhkiwus3dStyGgpXcT1KSp/VgFeudJPeCWd6B54hvRAhERnSK0CxjSL/aM8ulCwiz/srVglRAhf2dfx4vXg/ZnxOUw9Xy9tS+RGT4c0yqiExoTPU/nORR2mnGErqVozGbaY3Bs7v7dXjv0VZ3gCK9oGrDO7OfVyMMnwO+bL/L59ZbhMef2JIMPrvMKCVCXq+wX19AnlrAcoY6YiYG2pJtD0PwV1fJoaD7ZKeG0bkQZhDML/qbvZZB2SqL+d6zpUb3to5AUIxQslxVIoI/D5QWbe2c8rewhaaen0/q1rJc5ZXSJcMFwt1yMEhKv8S8zymcIyjQnuIzeuk9Apf05yTZtluXk+edYZCrc3WZRMuRT8wWEMZpuxdzT5FZ6CIvVTtd3ZO2FNEzDyiqDm5jea8a69UnbsPaPvIwwUQNY99qdB3CHmiFsYHE9ktBnfVdfNcWNUvbh2TDwz8xljOGgp8qarBYGANtibVDNuS3Bk5Fp2FtzCwVD2nUXuCemh25ObZgaXpOxBW183gLL2hWqJcUsllXy3p5bCX9RM1YledU8N8mOhowDQRL5y21fQYXSVFMys0fTZeVuOF3PfqXQvsg1nzFYFRSDC5NipdRWW++97PmSbrEamu0vR0RbvErD1EGMWO7kez2c9hJJ6XvY7c4a8+35f7xUyz1SIHdsFswpxg8zkzEUkgfJ9da7hkX8ydkBXrr5qpTN+MHQSpjuBrNCUc5RO/SiFbvDiUIHty2fOzG+NhLTtwlxffRK9HjatNu4UqyrVAVTJAYXy/XFgL9+sfGfhPezKxj5WhCSemhO1BAXQKwaq/izVc1IaXG7TAkbWe1oRqOA8Yp3OAM+NhMUU7QK40vEB/c3G/CWHQ4x7XpBXfSZq5SEu/+SjKE+hIllkHu2YDmeoWvjSghqNnG6WXxLk0oOcN4JRzdSRpdmCLa8INAxJBBxswgUu96ZnMYG4vc9kMNuYyp2/Serk269+dz57l8u3RUFw5R25QujYBNArZcMhy/qf6Sxvy4vGsTidgYGc2QVcJX1ua9T7hC56UqF3aIsqOel7qBMHM7BQmQr1Pl/1fRHcGGnVhtiEgKD52HA/iAYBPsfyw8+y+q2E0V7/zhGZDNV2orO39QL8+KXB8XdCgi2pYFa6rFOAdKoQW2u455V/MDwJdKFQj4B+AylKGb6iXDU3ZFeHL1PvufdNu/yTY+23IVfLFTtQF1XhMWvlPJi454PrE93kHwwYvYqhLjSoM2ZVoKiCl9GcHDi7uhhQ334G9KUvTqd9Ex9DgWNAWfDhmGb5UvOhGU31wm01+LFuYVaSM+p9KtPYBdPtQdDeTzngsRaLtbtdxDoMgOyRWZRGa5L452eDuEp1q9K5BninAPNsMk0tEF6vXePDc5BWn6bN0KCfiaNOtm3/y95KaRHb3SAevodOtfCotAN1bxM/eKKYIKMUBcr26GDUg3tAknzQoJ/gN1sXkJCNVgaUXCr7CVQqekopST7F1Hlf3Ld+FcsKCCCbE9RgAxxR8K3a6Xs6WQxmFGqGkSw1zmmIP21pEFoyOQIl67JsfDX+HRdf3mYg1QfS7pnpXDQigfXHLxnBmF0bIxLRbEYA9v5FRK1kR0i2ThuYPz0L4iN1Gk7dFdbvA528dFULXdu8df2m74Z5d8uaPrNd+nosZVAeHXt7vz1T+IGQO5JAxgwnWFXAElxV8Cr5dkh/G+YkRRgX4jPyaQtXTNAZDVuIAq/oB8DaKR89qx7E+BcDCa883UtBe9ytGHY7MQ6BewWAKKv4lEWb21j5bPAq7orid+J2qpCqxzFC/DlUj9v0CucdaitSRBbQNcSXYuMOPv2LwiDD1wCwXqRrcSa5U6nvR17YaXLAukZfLZSaxB5TNoucdDnFDVwO72CtKkq5G27fkLIOIlDmWQZCY5O3xXIayyT8DBSqWieIdVj1aps6wTpXB46uNn575RjYI3Y9q6F4kqfZW9C++3dUqFDYbmYVv+1Zkj9na5EtyS0LXsKnCZhtFVoj12m4AF3i/mgIZ7vn1P/O/QvJuvhW3Wev4Gl6ZgBFs6b75HVSTMtebeYKwI7AVAWicki0ujgbBLjeSGaJgKj9IGUvGxJXpMSIRyPWCf76updy27gFxHVuBw0BrRlo/bEj5L74syzpgPpDVIJWA7yFbsn0Am+O6FNBgJgYl/WPot16AUf1f2B/HAn58INkQ24YrpcQG0tOaSLwdzYmceJqCww+MMqxg1IxDmwCO4yjtiQSAxVKglspiJdyCzLdb8QiVrgS81pO8q4n7MDdemXhXZ1pxf5kfedFBSNYDx0gD3+1EQ4tE3SAtXUBo+qzNAxI+fPzmQLiyOGpSa4O2V+DD+868uaBSttZPtm7bhlH7DZ7hOcjcydLL70vA0pg1xo2IxKNIDnB5mxg/w1+0wElsovl/0H/e7eNUuDHqLjIW+vgwy5p6g+LebjMHiEVFQF6AR4LQCeql1aO5Kxz+zw4dd9FXERKtGUMLQ+V3Egf9Ag9Hvr6Ra8qTITOWLOwGFXJFQEZ6JE8ey4k6Kw7bQbvt8/4oNOippjzSYZwmS8w0ps0G24ZhhJZxp/X5WhmF8/jdrsRd39iEyC/QC2nf/bt6zpkn3FMlVFOUel3rRxhzUnZElHOvERscbP6fVFBgX7sQLTBo1dp6bYQh9bWdeD3WrYMcRonczZTpS5ZivvJzXd1CG1xCSc0dMF4v8x1EiyDpWCPngoUtTpND5x4iHfjGMFeBRBYtA0Yo3RxMeX8FWKsQyVbseksfohYvgCMUTv8kXF50OZQmzGOBsl7/Wj2YEliFMIJ4vydx4iw8YMPzzVIcSN1QPaQuzc1pe3Yxo1L8KltjbaRSMvZS/Xk0V1yDSfm8xV/eCP4F7w7EAb7BNdWOyD1JeCF/FpoPuWf+YIrG94uniZuovz/mC+vZdPxFK5yEHVQxcrzTRJlTCFM+T+p9wUTkKbM85M5lzI2WfSOfFpeujmjFqBMYqliWoq3R8IrXsOaNOeKMNCvrc6XmmEEn5eFGNacs2jJ9RLl+VW702NFaCprKE89jNl6WktPglrj8eZScZ/wkOzKtr2d5wrWSCNeLZSnwpAUocFfBly1AkgbmXaKHuKhqNvR4jvMMyZyhMR1+6OLDLsM30Qj9J+dVofRxKz9jNlgNPK1GWbEW8ZSmA1JryCPu9qotBy1iLHuud2fqoY6ythGmjAYV8FknkEEz0Tz4hp0Mn+4HORgKQ5zWtrO5vRuu63G7lpfG6ZY8VgPNx7BlCgONZQPKfThItmB9E/QB/L44PRue88ZfKNwHhzYOu8n+SdKFLL/c+IAKzYRW7jbz9yO2vhxG8wpU47iHao9HBPATtiKU2ujF7mIOY743Bwqe6/MEB8j4C1pE7wiu7SR2cFGGUetxp7+UdCbNUUhsFzOL6LHAIURU3kDc50NvtKGv7DdVZCHQLYZKh60VQgicwfxNSNZ0XaxGSGQvtvgG5S6mg/2IJwsnNl7rvIPW18G1PYzt2CVo4CiG1GDNDjEn8PiC6RMbG/qeU4tb/hIGrR7QSQU05kdd5eES5uYnbjDnQMht5E9srVbpoOMH1B6i6e3G8h/6LWE568jPklV8yBjDZXLF1/tpL7jTCZXA5TgpIOdUDuX/Zj8FyOu75bqu1LrvPtCzPsoNEN0oUym89DamPVeGy51hsirzmx+JHRCV9NoZ8Xra2wyo4Mga4A2WmECR3DvwAOBfKHi3b+fe4/XM4JmWWPNWcwVH/BlV1EFB8ehcZ0XGl1ZHV3MQqrDKaLVK0nsT5hFuH5FZzbg2Iy7XeSW33QpLmwmcx/twdeQN4UiwaNbK52xyGFWw+EWAwc6msDiTbJbhwAJ1LMT9fZyfQIl4AMTyNp33iePUkbrdfdYQZwxtTq7YuCdU1wNcDXKREIRoaHaqeunQ1nDkKuJP24dvvHUMVdUATbSo6iTT27mhuUzD6Bg5DkXHA4/R4QSxEP1k8mwYRv/Fcmdb/tlDwHoR9PcKpIG0adQqB87BTX35XymxnFe6JrMIJezKGyYcMvn19PjopC9qQ5YWzzBcm+o76AX37R0L48muDHP3Nk54SBMd5phVKQ3Y5x8uQL7/16803YQR1vhVY4QLIT+25MUX79o9B/HOJLJlq5yhDk9pFNZa5wHs3Rgq0IvGOuGcGVt2FtU7YjMPWWK76Fem6cMpOj/emdFjJi/59R07m3uF9SDZtBT2Nv1zuLz2BVTXexFbdWTfYd1YGXHiSw6ahte5prSCYEGdormyfDwc3OM63REQ/3AcXs/75zRuoK0oFxtAoNoXoedR7fNShUdbltug2sX5Nsca0GpnlivJSB6+KFanvhNMPrxSZDOJknWEfVRN40NmW6SV3TzmShkRsG0l8bcL18I598zYgsSxgRxtoCII9JItyNHn5A0OMdHf446P9+pyez5Rz4J3sJWPnw+oq/yJGNuUabHV+bb2yGksO+CeFuEmFKHiPi2dsDigh5E//kpZ8KE0ITtglIJxXIxiQ/EgvphXajxq9ywH/fv9wt6bjBIRXChk8V+aYUgxwZ9JkFWli8rFgMYwl0D/iVWEpTGsaLbRICGakPOhhxCkQ5fMDHs2/+sH8unxrNcrcG5A34suwS+BlQ7N4refC+qKjnAkIvQmPjZPn98Bdm1UccidYTgpObOHYq+XXzHh5UymeT0W9fqA72GZQ94uFDUCHx/AkVivYql2eGR05e4+80wmUfCKu8Ww8YIG6JumHFRDhCuHlHAmRc9V9F/wgQ2FrY88X1LHo/zHgmNSYu1KfLRyd79UmV/ri1HjJa/ViR/Qn8GkLNhKhonfES7X1GQn0GHDs59JxRMeGqwXQMK8BET1w1rb3Ou8TEaYyxAJQPBYEPnF2pGiCqunf4zlcdpxHye5gui8+jPBOvrBUNFlA9CGj2dV94GauCQvy3XABz6i7TO602VOkWHQ2lp9oOStKmL6d9jh4Q7uo57n8ndscmDX8yKG+5XdKEXSfUc8UWAEBSEmRr8j4fdmKb0IEG1X1zKaHPwh9fcvoyOO7QEnp02dixgfsBPVp7nID+gO+0/F4ldLmqqkO4x8sGE36/ZXvUC3GsECtuxKILv/3QGb9UQOkWGTA1Xjz0lmnuDRGrVVg34Aa5g/QlzTvJEjKAaR8oC2AfDiwQ6Ud2zxqSUlCWrFimFJ54cLo4Q8Lz7c/u31Dai6Iq4PxEkyXC1Qn0xcIPBzTpXAOGp+LikknEbA5vc+1xnIb9AFUCj9e6FWPZ696KZCU0bJAEsZQwJSdu5Xajjdbg2TWQo7bsZnxZTaWPrE9bPqinzbspTPDjAWSnQ5ep+11x6AzOcTssZ7eF329wy+oNll2ny2bT5DLEuj5zQWIMiaARFpNj4NrcERf6G9Yns5yKtD28t6ms7gDvo45y53ZhhQMQPQFzW6Ii59XbNrEHeRI95nrsAOnU34PV6h8mJ78I0AVBx242qIw5d5lUmWAPwSbNkZvvaSluvaQOJruQXyhO69mou9LwH/Tf/JbZIX0ZG3JDmrjO/jS2a9VIeKQxTq94iX6HYdiD4KijUAjmForTOWeT9EYcOKzXV7AeN+WRcZv5kji4FwfKoWdIJd2lwv8QFbclGd7aD/b48VyrcfpJeDfdwVPiXPBGhyl7TSLC0TCnXEkNkPATiXuHitGS4i2E35OBXy62+kqm1jTEcMRAlAw+RLjvtH7mnZW3vI0rvT8Nx257OfY2O1wB8MPsVVzzpATN4zQ3DNMcxs6sYnSBHA70ZpHn4P53CKGcc0yskzQpwPNID5op2uu0LgviD6clb9DiGOqKhHcrOKO9wneRefjFAkAkslYfGW8+AH59hoVB/v5t82d0QFLNzIVGkMVnQlB4rXWeru/knajH1oS5p/+8gihF0/2zaZi37mPUDym08TNaZTdm8QY9ul0vB5ZTT3kTGs6bPyRoNK0TUqzrT022EA+TJ+xsV21PXhJR+lW354zi0LnymCJdHZeuhZDYY9wViemZJAo7xnhT+egF28Y6G3W3TcBDDxjCC4lAxFG7nrZ5LxNUdJvqh0pLB+VJFekwwY5Xm+xAKp9HMZo+24TU+949C6G8gkTHXhvX1AiQSBGaaICZk4iNQGE1C7unsU/PkHUexTi7ITfwYI2zoJt3ND3Qlkj0qC2qy5CR3CRkGkJ8q7dpvidiovY//+74NaJQe/eEQZJOOwJmu8Lm/OunArhRSMk1T3aoqrZrs/n9+HF6TdDSL9lYepTaJ0ON4IWwNCTdA+Scx7wXC5Xk7gJqr7BQFlsCNjUD+YnvGbYVL2+FyHuhCGeZRT8agYTPpRxc1cfbovLLgeiVQ0jWEe8YwtIWytTK8W7YgJtoX2n++nIckmf9OM9xoMbkwfZM/oksd9dkLiBgSTGFaWNvR/B7jfa+KAAV4ItHSHdRq0fXZZ3ufGBxRHboFpp8vVcwEgc3WSZkVECIzaubIr/zZ5fnZ8Fttamn17GPwSLlbxfIrWRy1Sg1XP8oG/+5fIVDdODjoOl7H6pQd+bzayB0kEIyXdh5CF+veSdog4o1xjgEUjjS/2/Qk3xrSrN0FKr9RuXLv+0TLeyhgIxKZ/jlpaqnEEifcBBX9ZnBhOTse3njLHI8IiWOp3wpKXlEy1uBAVt0lCL1X8Lft7FuBJO2LPiEzCT+F87nT3Proxu0U4CNpEPCLJcZM9iBYaVmrX1Gbp5+Rfm35PZ5hz0bWnUaAJZ1FjtoZMF9IzwSsd/1YAEdB0z3GLoHxrc4uruM1qOdXZ3XEzJHKnDPLJDBYBoDt0UMWTw8OAfCbyfPHHG11pm3MwpuPG3Qg+ijLkY34rMIv0x8ZivF+W5SLvxAZOWSUM0xcL0i/7R2fUr+TX97Rk7EzeyuaP/storcN2Y+Rrs9fRAiURC59f3nyK15+fyYJYPPH9J7pMcP9gMSVl3r7Hpf6J5LUnI8WYVodwrektr8ietj09bNiYedSnJQk9xIRtQ+siA9Wz1cws9B9kE73BakS7/SpBlvgeGQ8VjzXn7AGr5bUsD+lMqkBIPOsclf/dUzj16AP67+wcCFpbutmg7+GxtK/SuLofU9PWN+AhKVI76jnAiQW42UiC6dJoUDvkoByN8cQKrxt3bj4pGIiPi9bEi7hquuK27Dv7C+M2wR0exjf3DiX2TyxNxaDlFb4no4C3/e/L8YuMfnJbo22mWq/WUUBudP1gar1Le/79bGaDYQd3srnunk9wSZ4pcaP0UsgbFSmWY0mmmOgL8gc93kp+W+2Lh00VIVdlcP5U9KAlVrikYLzSgXJPMzHz49ikYKfH0aghhXt+36l1rImSD52zzJv3uSRvFnyTA50NG2agXj26Tuggocxb+LZ+2KLwzWbAbtwJCxaoIW6Un3qJQIsnAxwsb7D1tv/yGo+sfHRNw0zHTR4IaIMlWuFHgEUVltHWwkta0FHhJ9NAZMBXwkrM8er2WGQnaWCjWF5szRHHbHcsJ4RACgcC4xfYAiKd5CaXyQWaHun3pYyQiiLBX2MkW65vLUW+okJjfu5WybZmwE2/8h08oRLwLkH4lQ5hP0oaXmGmBS3MrwtSLq3qhXDwH/gJXej3XSooRKmtQQrwe5yV3kdM4OupEdco48AwHoHYkt1fENZ+3KS30KdIqxnEwUc4GUDe32xkMpkpQisx/eEOM843qLkuvrxRaipoz5abBHv7k86k4s5uqTntTozGNxKdKlWe371dwWsweE6Ra/PiXL1cOtRr7rQmK0tEPqUOwFXNuTGP0tXHwSfha0AMx4Zi61iEhvmo1O8+P5q/eYxgCT8WxX4zAMcgp4KOdDycku9oa8bFPsvWsZ6JgHA2kBIL1764eytZnTTswfix4Yg1zWufnAKojo7Mek07WiWv1Nap6wMSt+0qkl45+5Fn5LbPuN7VuG29/t2tmcwMFw7aG2lOsxiGdBH3D4XmbcIu0+SO1kZqCGTYCs7HwDL2mDMfVCx38eqy5bVkVv1vAOnlR75jmg2p1Z1KuPdCbsm3JCR8eyCjXP75z7DN3bZP0p13aHc0KCjJh0hPxgHlg3VM4VKevub3YWQOBmeygdnEElSw9gXNiKHx8eeqQrOYFclU4pl8whrIK48Fp+fFVsFuFk8DedqpM6ECL09oBovO0ZOeuaCzzGD2AQrMl84cBkE94pTawjg0iHPDkEPHaF1dDqHlR9gBJqB/+/Cy4SzEDkz5q4z+zkxzHFv0VvpvFkPCMtDXJDhQBvdlLg8a5MqPhQim8t+E3ABgz+P3b1m/4zGsZQrfXif6osgXeWa/QMnfubNNn19Rayr+yqYpw2TXKA10lny5WhXebYCKLxV0sj2oN7sdP3RHbrCus5XtARy6fVLmWztpgzoAIZR7MpxwcYMlyq0rxYtYMmZ+Vp1FnUrE/lHwz3cHFwXbK2SSqF5fxCCf7Yj0hFyLg8Up0I8gmnb6NmDuLI8026jaV4re1hQkALimbo2Qk4n6xaYoFNrtc13Z6CGJ8LBv2B8OBRrOKv8xTAEtZTWvQTSj8Cjt1QgiUN0DV3pmAAZWs+6ZOqyHnZiEDwJFwEybYLJk7MyBWpxmDF8rfFHUiUJTj6l1ETSyhH9hTQFOjTTw4OwFSf5uQjj7CfFQsHTsvorZuOl9yC2DuZAOJfkMuSh8NCwurEzqUE4azwDChkY/KO6YrfdJbuciI/6vg952URcmkTat8hKPVwGVC71k1sA5CqKq7RaxZ0am62fTPNiZ9EYtjGhQfITWmGVl3aDzgkbEW2HJzfkX4eeEzMLT+GGnu9+33snLAXcCBMZHCJ1cZSMnyFSt5kEYfhMXtD2IfkeD0MD8Jq4LM+VfWntMDag67pWmu9ofzdP0Rh2fE5UE/axK8cdZTbbxoI/HhlES517OU8Z/xhvg31r2pD8fN+e9/IjV5Dvq8nUEvm7nKtW8GTUMLrHL8MgOLNSLrYmaQNxNCQusNOgeLX3oGE4kEe6dukbeX5khT2cBpNY9egnlMdyuBn1nl/sxQNFvgELh8f3Rxo9Qy2qp/l/itD+CTaCZnZOy/eX8Lu8HBnCDGNTywzBpAMDQGVdRCUQ+l3coC24t4osxFzegFp1K3/5WP3qp41q6FPxkAKJH2L4UDpiTe7W3yr5dZfdRP5/PAOZtoUWG3JrHgu6SlY4ULoancePABjNxd/fUgR+gBnzS9NlnPqAdTEyyVRwQhS/KkihP2dzeO5g4FHgIBC4bpi5MPp/dQ1+i2bRNqZJjienqr2O7eiRTBV8Ok11xUNpZy0WxoSgIhXbPZLvggmMJrHgtffkUUPUIPez+RpvuXuyNJy8XZzD9c/iQN7/16MfEwbZ7+t43/6d7YrO2ujpPO+3QF84hSI73ZKBdvSVK2JKnmt7r5Hm17dnd9RT44i5Is/4FmUYc4EEzIx/6C96aHAFAgeL8DftVVShhI8ATvzGuJM5qCRb2x0/4w+7Ulb5fW+ptbIQRnYbmMtNfDsovAMP9H+3W9SE9jc2vwibJbSbVkBFMYbWBj5mFsmGPwHkKpoX2hQ7U5+9FUdzNyKhu8yNjclhjGK6AM7dF75YPjH1n140AFxsa2rkNowxCIRRel+WQMEhdAVJCo/MNACMTPJ4S8cu3OdGBgEeYA3wpvvOdRofMDp1bN4xwR8ZJqm+wuJ2We0fhfjKtsdx8elFSJUyRYhnYOjp96o/vHocVE8LtRl2XgZgqO4EzP+YFgnvwN//aiJGp++DP/Aa5Jxi+42jMJz/7sR/r/HeIx3xOPrihU/ypEEPFgaJD5lXCVe8P/2+jcKow1fXH6981BCaZOIjx+Tsffvst/rSOx11J4AesDcQTt8F+NYIr0tKkQwihx9F6y/4DzCb7pFmn7qKV6589s+znTS8PbY+2hDHDnZtwxLf1XeWcJY/VY38KaW9d4XO7LjrByQCfVpT/w9fwt8U7Cp/ROfk1QKN9JVLLYrpvyGFLqeHftA3al+9CwEPFLjqzx3LecDK+XdbvgW/TJ/P7pkN3+8aEEOPubOKB6IQ71N5XHwJPWsuVIsyQNlAYzGtu7WdnB12U7iXHusjIDruJsT2ZuQwdUaIZnh+klHO+Dk0qCHuNOu7b5S/mf4/g+JGLoAlzdHgZufDg+2jO+0YsNCbR4rPlJ0aibHZ9sYoW8WMcSzuf2ArayBcsDbcpJ5l61pweYFhqE+dP/TPV4v4zBPBiX4LB0O5TM4eG/kPFdgCqaTgAo1E72cmQA9gPumSdAF18NvZg6i25YHFXcFlELUDrAEB54CdJNgFoAAAAAAAAANmY5L2uX1KxGG2sT4Ngju0j+5+88fwIBT4Du9eyLddvUGBjVAlInGtfmz7iXkklcNr4liwo248K3Xmvp4/cbQeHw5ryNcDU1cdoF6fsHuY+5K3D09QSaUVkrBpZgHUHSjPuzS1OVvuRmg+fSGxuA3xSH1CsmiNSmnQS7xF/L47XxeXKxduNlyEv7X6+jVOx6OWiBQYI9AB+vMJoEyZeWJ3Bbkkb4/SICajHWd9Iy/NLlh0WNp8T3fyN/fRAt1BR7uxb9iAdcvYykHW37mkIrUI8K+lKPXok7FtLXvS0xr0sl31U/R29+zSEhYts6WGLvyDp8U+8CVNxjyxv53fGT+dmPVYYAVnckUVQPSAftcR5+Wv2D96GooogDj1Ntx//S1ZdAB0yEZyCdZN1Plp5G1EHB9oELhgVMHw0r2YS44lM+uQwqHX/70vAo93krN4TZre9MhhrCU3QbwdUB0mutxnv4ngS/k7mBwpgVsqza9Z8cO18o0v92Vqz6SPb2pte+6xm2WGj4AaZ7Mev4Ngkos5U4OG8an9L4fDQRmVMrobWZCoCSu1YLgpXymNhhJ/7C4/6H+/j/FWbe2V6CU1Jx4Hip3Ybum6Vzp5hm3iaMfMefKjTzDnBs9j3utZf6sNhh+wfCIIngt/UTNix7ohnMx4I4gaYW14FJxti4Y2jdietgeJuFjlirtfP/vCpcGR/1Qb7PIK3oJ6zhlc6MtygAAAAAAAAAAA=;" vertex="1" parent="1">
                    <mxGeometry x="-2950" y="-490" width="660" height="404.38" as="geometry"/>
                </mxCell>
                <mxCell id="23" value="&lt;font color=&quot;#ffffff&quot; style=&quot;font-size: 24px;&quot;&gt;&lt;b style=&quot;&quot;&gt;Borrow Books&lt;/b&gt;&lt;/font&gt;" style="rounded=1;whiteSpace=wrap;html=1;fillColor=#84FF47;" vertex="1" parent="1">
                    <mxGeometry x="-3460" y="-120" width="278" height="45.62" as="geometry"/>
                </mxCell>
                <mxCell id="24" value="" style="rounded=0;whiteSpace=wrap;html=1;fillColor=#F9E5FF;" vertex="1" parent="1">
                    <mxGeometry x="-4400" y="-630" width="720" height="1090" as="geometry"/>
                </mxCell>
                <mxCell id="25" value="&lt;font color=&quot;#3e28ff&quot; style=&quot;font-size: 24px;&quot;&gt;&lt;b style=&quot;&quot;&gt;Welcome to Borrow book form register&lt;/b&gt;&lt;/font&gt;" style="text;html=1;align=center;verticalAlign=middle;whiteSpace=wrap;rounded=0;" vertex="1" parent="1">
                    <mxGeometry x="-4280" y="-600" width="490" height="72.5" as="geometry"/>
                </mxCell>
                <mxCell id="26" value="" style="rounded=1;whiteSpace=wrap;html=1;" vertex="1" parent="1">
                    <mxGeometry x="-4310" y="-450" width="540" height="50" as="geometry"/>
                </mxCell>
                <mxCell id="27" value="&lt;font style=&quot;font-size: 18px;&quot;&gt;Student Names&lt;/font&gt;" style="text;html=1;align=center;verticalAlign=middle;whiteSpace=wrap;rounded=0;" vertex="1" parent="1">
                    <mxGeometry x="-4330" y="-480" width="180" height="30" as="geometry"/>
                </mxCell>
                <mxCell id="30" value="" style="rounded=1;whiteSpace=wrap;html=1;" vertex="1" parent="1">
                    <mxGeometry x="-4310" y="-360" width="540" height="50" as="geometry"/>
                </mxCell>
                <mxCell id="31" value="&lt;font style=&quot;font-size: 18px;&quot;&gt;Class&amp;nbsp;&lt;/font&gt;" style="text;html=1;align=center;verticalAlign=middle;whiteSpace=wrap;rounded=0;" vertex="1" parent="1">
                    <mxGeometry x="-4370" y="-390" width="180" height="30" as="geometry"/>
                </mxCell>
                <mxCell id="32" value="" style="rounded=1;whiteSpace=wrap;html=1;" vertex="1" parent="1">
                    <mxGeometry x="-4310" y="-260" width="540" height="50" as="geometry"/>
                </mxCell>
                <mxCell id="33" value="&lt;font style=&quot;font-size: 18px;&quot;&gt;Parent phone number&lt;/font&gt;" style="text;html=1;align=center;verticalAlign=middle;whiteSpace=wrap;rounded=0;" vertex="1" parent="1">
                    <mxGeometry x="-4310" y="-290" width="180" height="30" as="geometry"/>
                </mxCell>
                <mxCell id="34" value="&lt;font style=&quot;font-size: 14px;&quot;&gt;Enter student full names&lt;/font&gt;" style="text;html=1;align=center;verticalAlign=middle;whiteSpace=wrap;rounded=0;" vertex="1" parent="1">
                    <mxGeometry x="-4430" y="-440" width="420" height="30" as="geometry"/>
                </mxCell>
                <mxCell id="35" value="Enter class" style="text;html=1;align=center;verticalAlign=middle;whiteSpace=wrap;rounded=0;" vertex="1" parent="1">
                    <mxGeometry x="-4340" y="-350" width="140" height="30" as="geometry"/>
                </mxCell>
                <mxCell id="36" value="Enter parent phone number" style="text;html=1;align=center;verticalAlign=middle;whiteSpace=wrap;rounded=0;" vertex="1" parent="1">
                    <mxGeometry x="-4310" y="-250" width="170" height="30" as="geometry"/>
                </mxCell>
                <mxCell id="37" value="" style="rounded=1;whiteSpace=wrap;html=1;" vertex="1" parent="1">
                    <mxGeometry x="-4310" y="-150" width="540" height="50" as="geometry"/>
                </mxCell>
                <mxCell id="38" value="&lt;font style=&quot;font-size: 18px;&quot;&gt;Second phone number&lt;/font&gt;" style="text;html=1;align=center;verticalAlign=middle;whiteSpace=wrap;rounded=0;" vertex="1" parent="1">
                    <mxGeometry x="-4310" y="-180" width="200" height="30" as="geometry"/>
                </mxCell>
                <mxCell id="39" value="" style="rounded=1;whiteSpace=wrap;html=1;" vertex="1" parent="1">
                    <mxGeometry x="-4310" y="-50" width="540" height="50" as="geometry"/>
                </mxCell>
                <mxCell id="40" value="&lt;font style=&quot;font-size: 18px;&quot;&gt;Book code&lt;/font&gt;" style="text;html=1;align=center;verticalAlign=middle;whiteSpace=wrap;rounded=0;" vertex="1" parent="1">
                    <mxGeometry x="-4360" y="-74.38" width="200" height="30" as="geometry"/>
                </mxCell>
                <mxCell id="41" value="Enter second phone number" style="text;html=1;align=center;verticalAlign=middle;whiteSpace=wrap;rounded=0;" vertex="1" parent="1">
                    <mxGeometry x="-4305" y="-140" width="170" height="30" as="geometry"/>
                </mxCell>
                <mxCell id="42" value="Enter book code" style="text;html=1;align=center;verticalAlign=middle;whiteSpace=wrap;rounded=0;" vertex="1" parent="1">
                    <mxGeometry x="-4340" y="-40" width="170" height="30" as="geometry"/>
                </mxCell>
                <mxCell id="43" value="" style="rounded=1;whiteSpace=wrap;html=1;" vertex="1" parent="1">
                    <mxGeometry x="-4310" y="60" width="540" height="50" as="geometry"/>
                </mxCell>
                <mxCell id="44" value="&lt;span style=&quot;font-size: 18px;&quot;&gt;Date taken&lt;/span&gt;" style="text;html=1;align=center;verticalAlign=middle;whiteSpace=wrap;rounded=0;" vertex="1" parent="1">
                    <mxGeometry x="-4360" y="130" width="200" height="30" as="geometry"/>
                </mxCell>
                <mxCell id="45" value="Enter book title" style="text;html=1;align=center;verticalAlign=middle;whiteSpace=wrap;rounded=0;" vertex="1" parent="1">
                    <mxGeometry x="-4340" y="70" width="170" height="30" as="geometry"/>
                </mxCell>
                <mxCell id="46" value="" style="rounded=1;whiteSpace=wrap;html=1;" vertex="1" parent="1">
                    <mxGeometry x="-4310" y="160" width="540" height="50" as="geometry"/>
                </mxCell>
                <mxCell id="47" value="Date" style="text;html=1;align=center;verticalAlign=middle;whiteSpace=wrap;rounded=0;" vertex="1" parent="1">
                    <mxGeometry x="-4345" y="170" width="170" height="30" as="geometry"/>
                </mxCell>
                <mxCell id="48" value="" style="rounded=1;whiteSpace=wrap;html=1;" vertex="1" parent="1">
                    <mxGeometry x="-4310" y="250" width="540" height="50" as="geometry"/>
                </mxCell>
                <mxCell id="49" value="&lt;font style=&quot;font-size: 18px;&quot;&gt;Date to return&lt;/font&gt;" style="text;html=1;align=center;verticalAlign=middle;whiteSpace=wrap;rounded=0;" vertex="1" parent="1">
                    <mxGeometry x="-4350" y="220" width="200" height="30" as="geometry"/>
                </mxCell>
                <mxCell id="50" value="Date" style="text;html=1;align=center;verticalAlign=middle;whiteSpace=wrap;rounded=0;" vertex="1" parent="1">
                    <mxGeometry x="-4350" y="260" width="170" height="30" as="geometry"/>
                </mxCell>
                <mxCell id="52" value="&lt;font color=&quot;#ffffff&quot; style=&quot;font-size: 24px;&quot;&gt;&lt;b style=&quot;&quot;&gt;Borrow Books&lt;/b&gt;&lt;/font&gt;" style="rounded=1;whiteSpace=wrap;html=1;fillColor=#84FF47;" vertex="1" parent="1">
                    <mxGeometry x="-4220" y="350" width="278" height="45.62" as="geometry"/>
                </mxCell>
                <mxCell id="55" value="&lt;font style=&quot;font-size: 18px;&quot;&gt;Book title&lt;/font&gt;" style="text;html=1;align=center;verticalAlign=middle;whiteSpace=wrap;rounded=0;" vertex="1" parent="1">
                    <mxGeometry x="-4370" y="30" width="200" height="30" as="geometry"/>
                </mxCell>
                <mxCell id="56" value="" style="dashed=0;outlineConnect=0;html=1;align=center;labelPosition=center;verticalLabelPosition=bottom;verticalAlign=top;shape=mxgraph.webicons.gmail;gradientColor=#DFDEDE" vertex="1" parent="1">
                    <mxGeometry x="-2933" y="-74.38" width="78" height="56" as="geometry"/>
                </mxCell>
                <mxCell id="57" value="" style="dashed=0;outlineConnect=0;html=1;align=center;labelPosition=center;verticalLabelPosition=bottom;verticalAlign=top;shape=mxgraph.webicons.linkedin;fillColor=#0095DB;gradientColor=#006391" vertex="1" parent="1">
                    <mxGeometry x="-2820" y="-62.75999999999999" width="60" height="44.38" as="geometry"/>
                </mxCell>
                <mxCell id="59" value="" style="dashed=0;outlineConnect=0;html=1;align=center;labelPosition=center;verticalLabelPosition=bottom;verticalAlign=top;shape=mxgraph.webicons.sms;fillColor=#86D466;gradientColor=#42B418" vertex="1" parent="1">
                    <mxGeometry x="-2430" y="-590.1999999999999" width="50" height="42.4" as="geometry"/>
                </mxCell>
                <mxCell id="60" value="" style="dashed=0;outlineConnect=0;html=1;align=center;labelPosition=center;verticalLabelPosition=bottom;verticalAlign=top;shape=mxgraph.webicons.twitter;fillColor=#49EAF7;gradientColor=#137BD0" vertex="1" parent="1">
                    <mxGeometry x="-2730" y="-62.76" width="60" height="44.38" as="geometry"/>
                </mxCell>
                <mxCell id="61" value="" style="dashed=0;outlineConnect=0;html=1;align=center;labelPosition=center;verticalLabelPosition=bottom;verticalAlign=top;shape=mxgraph.webicons.facebook;fillColor=#6294E4;gradientColor=#1A2665" vertex="1" parent="1">
                    <mxGeometry x="-2640" y="-61.77" width="60" height="41.77" as="geometry"/>
                </mxCell>
                <mxCell id="62" value="" style="dashed=0;outlineConnect=0;html=1;align=center;labelPosition=center;verticalLabelPosition=bottom;verticalAlign=top;shape=mxgraph.webicons.phone;fillColor=#76F21E;gradientColor=#079704" vertex="1" parent="1">
                    <mxGeometry x="-2530" y="-60" width="50" height="40" as="geometry"/>
                </mxCell>
                <mxCell id="63" value="" style="rounded=0;whiteSpace=wrap;html=1;" vertex="1" parent="1">
                    <mxGeometry x="-2120" y="-620" width="710" height="1000" as="geometry"/>
                </mxCell>
                <mxCell id="67" value="&lt;font style=&quot;font-size: 24px;&quot;&gt;&lt;u&gt;Update&lt;/u&gt;&lt;/font&gt;" style="text;html=1;align=center;verticalAlign=middle;whiteSpace=wrap;rounded=0;" vertex="1" parent="1">
                    <mxGeometry x="-2020" y="-584" width="60" height="30" as="geometry"/>
                </mxCell>
                <mxCell id="68" style="edgeStyle=none;html=1;exitX=1;exitY=0.25;exitDx=0;exitDy=0;entryX=1;entryY=0;entryDx=0;entryDy=0;" edge="1" parent="1" source="67" target="67">
                    <mxGeometry relative="1" as="geometry"/>
                </mxCell>
                <mxCell id="69" value="&lt;font style=&quot;font-size: 24px;&quot;&gt;&lt;u&gt;Delet account&lt;/u&gt;&lt;/font&gt;" style="text;html=1;align=center;verticalAlign=middle;whiteSpace=wrap;rounded=0;" vertex="1" parent="1">
                    <mxGeometry x="-2030" y="-510" width="160" height="30" as="geometry"/>
                </mxCell>
                <mxCell id="70" value="&lt;font style=&quot;font-size: 24px;&quot;&gt;&lt;u&gt;Logout&lt;/u&gt;&lt;/font&gt;" style="text;html=1;align=center;verticalAlign=middle;whiteSpace=wrap;rounded=0;" vertex="1" parent="1">
                    <mxGeometry x="-2067" y="-450" width="160" height="30" as="geometry"/>
                </mxCell>
            </root>
        </mxGraphModel>
    </diagram>
</mxfile>